<svg id="visual" viewBox="0 0 900 450" width="900" height="450" xmlns="http://www.w3.org/2000/svg" xmlns:xlink="http://www.w3.org/1999/xlink" version="1.1"><path d="M0 42L10 42C20 42 40 42 60 40.5C80 39 100 36 120 38.2C140 40.3 160 47.7 180 48.3C200 49 220 43 240 44.5C260 46 280 55 300 59.5C320 64 340 64 360 58C380 52 400 40 420 40C440 40 460 52 480 53.5C500 55 520 46 540 40C560 34 580 31 600 31C620 31 640 34 660 34C680 34 700 31 720 33.3C740 35.7 760 43.3 780 47.8C800 52.3 820 53.7 840 49.8C860 46 880 37 890 32.5L900 28L900 0L890 0C880 0 860 0 840 0C820 0 800 0 780 0C760 0 740 0 720 0C700 0 680 0 660 0C640 0 620 0 600 0C580 0 560 0 540 0C520 0 500 0 480 0C460 0 440 0 420 0C400 0 380 0 360 0C340 0 320 0 300 0C280 0 260 0 240 0C220 0 200 0 180 0C160 0 140 0 120 0C100 0 80 0 60 0C40 0 20 0 10 0L0 0Z" fill="#434a6e"></path><path d="M0 96L10 99.7C20 103.3 40 110.7 60 114.3C80 118 100 118 120 115C140 112 160 106 180 104.5C200 103 220 106 240 111.3C260 116.7 280 124.3 300 127.3C320 130.3 340 128.7 360 118.2C380 107.7 400 88.3 420 89.8C440 91.3 460 113.7 480 119.7C500 125.7 520 115.3 540 107.2C560 99 580 93 600 91.5C620 90 640 93 660 91.5C680 90 700 84 720 86.2C740 88.3 760 98.7 780 101.7C800 104.7 820 100.3 840 100.3C860 100.3 880 104.7 890 106.8L900 109L900 26L890 30.5C880 35 860 44 840 47.8C820 51.7 800 50.3 780 45.8C760 41.3 740 33.7 720 31.3C700 29 680 32 660 32C640 32 620 29 600 29C580 29 560 32 540 38C520 44 500 53 480 51.5C460 50 440 38 420 38C400 38 380 50 360 56C340 62 320 62 300 57.5C280 53 260 44 240 42.5C220 41 200 47 180 46.3C160 45.7 140 38.3 120 36.2C100 34 80 37 60 38.5C40 40 20 40 10 40L0 40Z" fill="#363c5e"></path><path d="M0 186L10 183C20 180 40 174 60 174.7C80 175.3 100 182.7 120 186.3C140 190 160 190 180 183.3C200 176.7 220 163.3 240 166.3C260 169.3 280 188.7 300 194.7C320 200.7 340 193.3 360 186.7C380 180 400 174 420 176.2C440 178.3 460 188.7 480 191.7C500 194.7 520 190.3 540 184.3C560 178.3 580 170.7 600 167.7C620 164.7 640 166.3 660 169.3C680 172.3 700 176.7 720 182.7C740 188.7 760 196.3 780 197.2C800 198 820 192 840 189.7C860 187.3 880 188.7 890 189.3L900 190L900 107L890 104.8C880 102.7 860 98.3 840 98.3C820 98.3 800 102.7 780 99.7C760 96.7 740 86.3 720 84.2C700 82 680 88 660 89.5C640 91 620 88 600 89.5C580 91 560 97 540 105.2C520 113.3 500 123.7 480 117.7C460 111.7 440 89.3 420 87.8C400 86.3 380 105.7 360 116.2C340 126.7 320 128.3 300 125.3C280 122.3 260 114.7 240 109.3C220 104 200 101 180 102.5C160 104 140 110 120 113C100 116 80 116 60 112.3C40 108.7 20 101.3 10 97.7L0 94Z" fill="#292f4e"></path><path d="M0 235L10 229.8C20 224.7 40 214.3 60 211.3C80 208.3 100 212.7 120 216.3C140 220 160 223 180 220C200 217 220 208 240 210.3C260 212.7 280 226.3 300 233.2C320 240 340 240 360 234C380 228 400 216 420 215.2C440 214.3 460 224.7 480 231.3C500 238 520 241 540 237.3C560 233.7 580 223.3 600 217.3C620 211.3 640 209.7 660 209.7C680 209.7 700 211.3 720 218.8C740 226.3 760 239.7 780 239.7C800 239.7 820 226.3 840 221.8C860 217.3 880 221.7 890 223.8L900 226L900 188L890 187.3C880 186.7 860 185.3 840 187.7C820 190 800 196 780 195.2C760 194.3 740 186.7 720 180.7C700 174.7 680 170.3 660 167.3C640 164.3 620 162.7 600 165.7C580 168.7 560 176.3 540 182.3C520 188.3 500 192.7 480 189.7C460 186.7 440 176.3 420 174.2C400 172 380 178 360 184.7C340 191.3 320 198.7 300 192.7C280 186.7 260 167.3 240 164.3C220 161.3 200 174.7 180 181.3C160 188 140 188 120 184.3C100 180.7 80 173.3 60 172.7C40 172 20 178 10 181L0 184Z" fill="#212742"></path><path d="M0 321L10 319.5C20 318 40 315 60 321.7C80 328.3 100 344.7 120 354.3C140 364 160 367 180 367.8C200 368.7 220 367.3 240 358.3C260 349.3 280 332.7 300 332.7C320 332.7 340 349.3 360 347.8C380 346.3 400 326.7 420 325.2C440 323.7 460 340.3 480 343.3C500 346.3 520 335.7 540 332.7C560 329.7 580 334.3 600 330.7C620 327 640 315 660 321.7C680 328.3 700 353.7 720 366.3C740 379 760 379 780 377.5C800 376 820 373 840 370C860 367 880 364 890 362.5L900 361L900 224L890 221.8C880 219.7 860 215.3 840 219.8C820 224.3 800 237.7 780 237.7C760 237.7 740 224.3 720 216.8C700 209.3 680 207.7 660 207.7C640 207.7 620 209.3 600 215.3C580 221.3 560 231.7 540 235.3C520 239 500 236 480 229.3C460 222.7 440 212.3 420 213.2C400 214 380 226 360 232C340 238 320 238 300 231.2C280 224.3 260 210.7 240 208.3C220 206 200 215 180 218C160 221 140 218 120 214.3C100 210.7 80 206.3 60 209.3C40 212.3 20 222.7 10 227.8L0 233Z" fill="#1e243b"></path><path d="M0 451L10 451C20 451 40 451 60 451C80 451 100 451 120 451C140 451 160 451 180 451C200 451 220 451 240 451C260 451 280 451 300 451C320 451 340 451 360 451C380 451 400 451 420 451C440 451 460 451 480 451C500 451 520 451 540 451C560 451 580 451 600 451C620 451 640 451 660 451C680 451 700 451 720 451C740 451 760 451 780 451C800 451 820 451 840 451C860 451 880 451 890 451L900 451L900 359L890 360.5C880 362 860 365 840 368C820 371 800 374 780 375.5C760 377 740 377 720 364.3C700 351.7 680 326.3 660 319.7C640 313 620 325 600 328.7C580 332.3 560 327.7 540 330.7C520 333.7 500 344.3 480 341.3C460 338.3 440 321.7 420 323.2C400 324.7 380 344.3 360 345.8C340 347.3 320 330.7 300 330.7C280 330.7 260 347.3 240 356.3C220 365.3 200 366.7 180 365.8C160 365 140 362 120 352.3C100 342.7 80 326.3 60 319.7C40 313 20 316 10 317.5L0 319Z" fill="#1b2034"></path></svg>