<svg id="visual" viewBox="0 0 900 450" width="900" height="450" xmlns="http://www.w3.org/2000/svg" xmlns:xlink="http://www.w3.org/1999/xlink" version="1.1"><path d="M0 91L13.7 87.3C27.3 83.7 54.7 76.3 82 70.3C109.3 64.3 136.7 59.7 163.8 63.3C191 67 218 79 245.2 75.3C272.3 71.7 299.7 52.3 327 42.7C354.3 33 381.7 33 409 35.2C436.3 37.3 463.7 41.7 491 43.2C518.3 44.7 545.7 43.3 573 41.2C600.3 39 627.7 36 654.8 34.5C682 33 709 33 736.2 37.5C763.3 42 790.7 51 818 55.5C845.3 60 872.7 60 886.3 60L900 60L900 0L886.3 0C872.7 0 845.3 0 818 0C790.7 0 763.3 0 736.2 0C709 0 682 0 654.8 0C627.7 0 600.3 0 573 0C545.7 0 518.3 0 491 0C463.7 0 436.3 0 409 0C381.7 0 354.3 0 327 0C299.7 0 272.3 0 245.2 0C218 0 191 0 163.8 0C136.7 0 109.3 0 82 0C54.7 0 27.3 0 13.7 0L0 0Z" fill="#fde24f"></path><path d="M0 222L13.7 224.2C27.3 226.3 54.7 230.7 82 216.3C109.3 202 136.7 169 163.8 171.3C191 173.7 218 211.3 245.2 218.2C272.3 225 299.7 201 327 187.5C354.3 174 381.7 171 409 162.7C436.3 154.3 463.7 140.7 491 153.3C518.3 166 545.7 205 573 218.5C600.3 232 627.7 220 654.8 214C682 208 709 208 736.2 206.5C763.3 205 790.7 202 818 189.3C845.3 176.7 872.7 154.3 886.3 143.2L900 132L900 58L886.3 58C872.7 58 845.3 58 818 53.5C790.7 49 763.3 40 736.2 35.5C709 31 682 31 654.8 32.5C627.7 34 600.3 37 573 39.2C545.7 41.3 518.3 42.7 491 41.2C463.7 39.7 436.3 35.3 409 33.2C381.7 31 354.3 31 327 40.7C299.7 50.3 272.3 69.7 245.2 73.3C218 77 191 65 163.8 61.3C136.7 57.7 109.3 62.3 82 68.3C54.7 74.3 27.3 81.7 13.7 85.3L0 89Z" fill="#e1c93e"></path><path d="M0 294L13.7 288.7C27.3 283.3 54.7 272.7 82 251.7C109.3 230.7 136.7 199.3 163.8 206.8C191 214.3 218 260.7 245.2 268.8C272.3 277 299.7 247 327 232C354.3 217 381.7 217 409 210.3C436.3 203.7 463.7 190.3 491 200.8C518.3 211.3 545.7 245.7 573 256.8C600.3 268 627.7 256 654.8 248.5C682 241 709 238 736.2 240.3C763.3 242.7 790.7 250.3 818 239.8C845.3 229.3 872.7 200.7 886.3 186.3L900 172L900 130L886.3 141.2C872.7 152.3 845.3 174.7 818 187.3C790.7 200 763.3 203 736.2 204.5C709 206 682 206 654.8 212C627.7 218 600.3 230 573 216.5C545.7 203 518.3 164 491 151.3C463.7 138.7 436.3 152.3 409 160.7C381.7 169 354.3 172 327 185.5C299.7 199 272.3 223 245.2 216.2C218 209.3 191 171.7 163.8 169.3C136.7 167 109.3 200 82 214.3C54.7 228.7 27.3 224.3 13.7 222.2L0 220Z" fill="#c6b02c"></path><path d="M0 379L13.7 377.5C27.3 376 54.7 373 82 355.8C109.3 338.7 136.7 307.3 163.8 305.8C191 304.3 218 332.7 245.2 337.2C272.3 341.7 299.7 322.3 327 320.2C354.3 318 381.7 333 409 322.5C436.3 312 463.7 276 491 275.2C518.3 274.3 545.7 308.7 573 327.3C600.3 346 627.7 349 654.8 341.5C682 334 709 316 736.2 317.5C763.3 319 790.7 340 818 334C845.3 328 872.7 295 886.3 278.5L900 262L900 170L886.3 184.3C872.7 198.7 845.3 227.3 818 237.8C790.7 248.3 763.3 240.7 736.2 238.3C709 236 682 239 654.8 246.5C627.7 254 600.3 266 573 254.8C545.7 243.7 518.3 209.3 491 198.8C463.7 188.3 436.3 201.7 409 208.3C381.7 215 354.3 215 327 230C299.7 245 272.3 275 245.2 266.8C218 258.7 191 212.3 163.8 204.8C136.7 197.3 109.3 228.7 82 249.7C54.7 270.7 27.3 281.3 13.7 286.7L0 292Z" fill="#ac9819"></path><path d="M0 451L13.7 451C27.3 451 54.7 451 82 451C109.3 451 136.7 451 163.8 451C191 451 218 451 245.2 451C272.3 451 299.7 451 327 451C354.3 451 381.7 451 409 451C436.3 451 463.7 451 491 451C518.3 451 545.7 451 573 451C600.3 451 627.7 451 654.8 451C682 451 709 451 736.2 451C763.3 451 790.7 451 818 451C845.3 451 872.7 451 886.3 451L900 451L900 260L886.3 276.5C872.7 293 845.3 326 818 332C790.7 338 763.3 317 736.2 315.5C709 314 682 332 654.8 339.5C627.7 347 600.3 344 573 325.3C545.7 306.7 518.3 272.3 491 273.2C463.7 274 436.3 310 409 320.5C381.7 331 354.3 316 327 318.2C299.7 320.3 272.3 339.7 245.2 335.2C218 330.7 191 302.3 163.8 303.8C136.7 305.3 109.3 336.7 82 353.8C54.7 371 27.3 374 13.7 375.5L0 377Z" fill="#928100"></path></svg>