<svg id="visual" viewBox="0 0 900 450" width="900" height="450" xmlns="http://www.w3.org/2000/svg" xmlns:xlink="http://www.w3.org/1999/xlink" version="1.1"><rect x="0" y="0" width="900" height="450" fill="#FFFFFE"></rect><path d="M0 109L21.5 102C43 95 86 81 128.8 79.2C171.7 77.3 214.3 87.7 257.2 90.5C300 93.3 343 88.7 385.8 90.3C428.7 92 471.3 100 514.2 102C557 104 600 100 642.8 96.7C685.7 93.3 728.3 90.7 771.2 91.3C814 92 857 96 878.5 98L900 100L900 0L878.5 0C857 0 814 0 771.2 0C728.3 0 685.7 0 642.8 0C600 0 557 0 514.2 0C471.3 0 428.7 0 385.8 0C343 0 300 0 257.2 0C214.3 0 171.7 0 128.8 0C86 0 43 0 21.5 0L0 0Z" fill="#00ebc7"></path><path d="M0 83L21.5 78.3C43 73.7 86 64.3 128.8 62.3C171.7 60.3 214.3 65.7 257.2 70.7C300 75.7 343 80.3 385.8 79.7C428.7 79 471.3 73 514.2 69.3C557 65.7 600 64.3 642.8 62C685.7 59.7 728.3 56.3 771.2 59.2C814 62 857 71 878.5 75.5L900 80L900 0L878.5 0C857 0 814 0 771.2 0C728.3 0 685.7 0 642.8 0C600 0 557 0 514.2 0C471.3 0 428.7 0 385.8 0C343 0 300 0 257.2 0C214.3 0 171.7 0 128.8 0C86 0 43 0 21.5 0L0 0Z" fill="#52d38f"></path><path d="M0 50L21.5 50.2C43 50.3 86 50.7 128.8 52C171.7 53.3 214.3 55.7 257.2 58.2C300 60.7 343 63.3 385.8 62.7C428.7 62 471.3 58 514.2 55.3C557 52.7 600 51.3 642.8 51C685.7 50.7 728.3 51.3 771.2 52.5C814 53.7 857 55.3 878.5 56.2L900 57L900 0L878.5 0C857 0 814 0 771.2 0C728.3 0 685.7 0 642.8 0C600 0 557 0 514.2 0C471.3 0 428.7 0 385.8 0C343 0 300 0 257.2 0C214.3 0 171.7 0 128.8 0C86 0 43 0 21.5 0L0 0Z" fill="#71b95c"></path><path d="M0 40L21.5 39.7C43 39.3 86 38.7 128.8 37.3C171.7 36 214.3 34 257.2 32.5C300 31 343 30 385.8 32C428.7 34 471.3 39 514.2 38.8C557 38.7 600 33.3 642.8 32C685.7 30.7 728.3 33.3 771.2 37C814 40.7 857 45.3 878.5 47.7L900 50L900 0L878.5 0C857 0 814 0 771.2 0C728.3 0 685.7 0 642.8 0C600 0 557 0 514.2 0C471.3 0 428.7 0 385.8 0C343 0 300 0 257.2 0C214.3 0 171.7 0 128.8 0C86 0 43 0 21.5 0L0 0Z" fill="#859e2f"></path><path d="M0 17L21.5 19.3C43 21.7 86 26.3 128.8 26C171.7 25.7 214.3 20.3 257.2 20.2C300 20 343 25 385.8 24.8C428.7 24.7 471.3 19.3 514.2 17.7C557 16 600 18 642.8 19.3C685.7 20.7 728.3 21.3 771.2 22.2C814 23 857 24 878.5 24.5L900 25L900 0L878.5 0C857 0 814 0 771.2 0C728.3 0 685.7 0 642.8 0C600 0 557 0 514.2 0C471.3 0 428.7 0 385.8 0C343 0 300 0 257.2 0C214.3 0 171.7 0 128.8 0C86 0 43 0 21.5 0L0 0Z" fill="#928100"></path></svg>