<svg id="visual" viewBox="0 0 900 450" width="900" height="450" xmlns="http://www.w3.org/2000/svg" xmlns:xlink="http://www.w3.org/1999/xlink" version="1.1"><path d="M0 175L21.5 167.7C43 160.3 86 145.7 128.8 147.3C171.7 149 214.3 167 257.2 165.2C300 163.3 343 141.7 385.8 130.3C428.7 119 471.3 118 514.2 127.5C557 137 600 157 642.8 166C685.7 175 728.3 173 771.2 169.5C814 166 857 161 878.5 158.5L900 156L900 0L878.5 0C857 0 814 0 771.2 0C728.3 0 685.7 0 642.8 0C600 0 557 0 514.2 0C471.3 0 428.7 0 385.8 0C343 0 300 0 257.2 0C214.3 0 171.7 0 128.8 0C86 0 43 0 21.5 0L0 0Z" fill="#eebbc3"></path><path d="M0 124L21.5 128.7C43 133.3 86 142.7 128.8 137.3C171.7 132 214.3 112 257.2 110.8C300 109.7 343 127.3 385.8 130.2C428.7 133 471.3 121 514.2 113.2C557 105.3 600 101.7 642.8 100.3C685.7 99 728.3 100 771.2 107.8C814 115.7 857 130.3 878.5 137.7L900 145L900 0L878.5 0C857 0 814 0 771.2 0C728.3 0 685.7 0 642.8 0C600 0 557 0 514.2 0C471.3 0 428.7 0 385.8 0C343 0 300 0 257.2 0C214.3 0 171.7 0 128.8 0C86 0 43 0 21.5 0L0 0Z" fill="#bc91a5"></path><path d="M0 81L21.5 87C43 93 86 105 128.8 107.7C171.7 110.3 214.3 103.7 257.2 102.5C300 101.3 343 105.7 385.8 102.7C428.7 99.7 471.3 89.3 514.2 90.5C557 91.7 600 104.3 642.8 102.2C685.7 100 728.3 83 771.2 81.3C814 79.7 857 93.3 878.5 100.2L900 107L900 0L878.5 0C857 0 814 0 771.2 0C728.3 0 685.7 0 642.8 0C600 0 557 0 514.2 0C471.3 0 428.7 0 385.8 0C343 0 300 0 257.2 0C214.3 0 171.7 0 128.8 0C86 0 43 0 21.5 0L0 0Z" fill="#896b86"></path><path d="M0 74L21.5 70.5C43 67 86 60 128.8 55.2C171.7 50.3 214.3 47.7 257.2 50.8C300 54 343 63 385.8 63.5C428.7 64 471.3 56 514.2 57.8C557 59.7 600 71.3 642.8 72.8C685.7 74.3 728.3 65.7 771.2 65.2C814 64.7 857 72.3 878.5 76.2L900 80L900 0L878.5 0C857 0 814 0 771.2 0C728.3 0 685.7 0 642.8 0C600 0 557 0 514.2 0C471.3 0 428.7 0 385.8 0C343 0 300 0 257.2 0C214.3 0 171.7 0 128.8 0C86 0 43 0 21.5 0L0 0Z" fill="#564867"></path><path d="M0 43L21.5 40.7C43 38.3 86 33.7 128.8 35.7C171.7 37.7 214.3 46.3 257.2 45.8C300 45.3 343 35.7 385.8 35.5C428.7 35.3 471.3 44.7 514.2 48C557 51.3 600 48.7 642.8 44.2C685.7 39.7 728.3 33.3 771.2 29.5C814 25.7 857 24.3 878.5 23.7L900 23L900 0L878.5 0C857 0 814 0 771.2 0C728.3 0 685.7 0 642.8 0C600 0 557 0 514.2 0C471.3 0 428.7 0 385.8 0C343 0 300 0 257.2 0C214.3 0 171.7 0 128.8 0C86 0 43 0 21.5 0L0 0Z" fill="#232946"></path></svg>