<svg id="visual" viewBox="0 0 600 900" width="600" height="900" xmlns="http://www.w3.org/2000/svg" xmlns:xlink="http://www.w3.org/1999/xlink" version="1.1"><rect x="0" y="0" width="600" height="900" fill="#232946"></rect><defs><linearGradient id="grad1_0" x1="0%" y1="100%" x2="100%" y2="0%"><stop offset="30%" stop-color="#fbae3c" stop-opacity="1"></stop><stop offset="70%" stop-color="#fbae3c" stop-opacity="1"></stop></linearGradient></defs><defs><linearGradient id="grad1_1" x1="0%" y1="100%" x2="100%" y2="0%"><stop offset="30%" stop-color="#fbae3c" stop-opacity="1"></stop><stop offset="70%" stop-color="#f17c54" stop-opacity="1"></stop></linearGradient></defs><defs><linearGradient id="grad1_2" x1="0%" y1="100%" x2="100%" y2="0%"><stop offset="30%" stop-color="#cd5969" stop-opacity="1"></stop><stop offset="70%" stop-color="#f17c54" stop-opacity="1"></stop></linearGradient></defs><defs><linearGradient id="grad1_3" x1="0%" y1="100%" x2="100%" y2="0%"><stop offset="30%" stop-color="#cd5969" stop-opacity="1"></stop><stop offset="70%" stop-color="#954670" stop-opacity="1"></stop></linearGradient></defs><defs><linearGradient id="grad1_4" x1="0%" y1="100%" x2="100%" y2="0%"><stop offset="30%" stop-color="#583964" stop-opacity="1"></stop><stop offset="70%" stop-color="#954670" stop-opacity="1"></stop></linearGradient></defs><defs><linearGradient id="grad1_5" x1="0%" y1="100%" x2="100%" y2="0%"><stop offset="30%" stop-color="#583964" stop-opacity="1"></stop><stop offset="70%" stop-color="#232946" stop-opacity="1"></stop></linearGradient></defs><defs><linearGradient id="grad2_0" x1="0%" y1="100%" x2="100%" y2="0%"><stop offset="30%" stop-color="#fbae3c" stop-opacity="1"></stop><stop offset="70%" stop-color="#fbae3c" stop-opacity="1"></stop></linearGradient></defs><defs><linearGradient id="grad2_1" x1="0%" y1="100%" x2="100%" y2="0%"><stop offset="30%" stop-color="#f17c54" stop-opacity="1"></stop><stop offset="70%" stop-color="#fbae3c" stop-opacity="1"></stop></linearGradient></defs><defs><linearGradient id="grad2_2" x1="0%" y1="100%" x2="100%" y2="0%"><stop offset="30%" stop-color="#f17c54" stop-opacity="1"></stop><stop offset="70%" stop-color="#cd5969" stop-opacity="1"></stop></linearGradient></defs><defs><linearGradient id="grad2_3" x1="0%" y1="100%" x2="100%" y2="0%"><stop offset="30%" stop-color="#954670" stop-opacity="1"></stop><stop offset="70%" stop-color="#cd5969" stop-opacity="1"></stop></linearGradient></defs><defs><linearGradient id="grad2_4" x1="0%" y1="100%" x2="100%" y2="0%"><stop offset="30%" stop-color="#954670" stop-opacity="1"></stop><stop offset="70%" stop-color="#583964" stop-opacity="1"></stop></linearGradient></defs><defs><linearGradient id="grad2_5" x1="0%" y1="100%" x2="100%" y2="0%"><stop offset="30%" stop-color="#232946" stop-opacity="1"></stop><stop offset="70%" stop-color="#583964" stop-opacity="1"></stop></linearGradient></defs><g transform="translate(600, 900)"><path d="M-378.6 0C-352.3 -35.6 -326 -71.2 -303.4 -98.6C-280.8 -126 -261.8 -145.2 -253.2 -184C-244.7 -222.8 -246.5 -281.1 -222.5 -306.3C-198.5 -331.5 -148.6 -323.5 -107.2 -330C-65.8 -336.5 -32.9 -357.6 0 -378.6L0 0Z" fill="#3c3257"></path><path d="M-315.5 0C-293.6 -29.7 -271.7 -59.3 -252.8 -82.1C-234 -105 -218.1 -121 -211 -153.3C-203.9 -185.6 -205.4 -234.2 -185.4 -255.2C-165.4 -276.2 -123.9 -269.6 -89.4 -275C-54.9 -280.5 -27.4 -298 0 -315.5L0 0Z" fill="#773f6d"></path><path d="M-252.4 0C-234.9 -23.7 -217.3 -47.4 -202.3 -65.7C-187.2 -84 -174.5 -96.8 -168.8 -122.7C-163.1 -148.5 -164.4 -187.4 -148.4 -204.2C-132.3 -221 -99.1 -215.7 -71.5 -220C-43.9 -224.4 -21.9 -238.4 0 -252.4L0 0Z" fill="#b34e6f"></path><path d="M-189.3 0C-176.2 -17.8 -163 -35.6 -151.7 -49.3C-140.4 -63 -130.9 -72.6 -126.6 -92C-122.3 -111.4 -123.3 -140.5 -111.3 -153.1C-99.3 -165.7 -74.3 -161.7 -53.6 -165C-32.9 -168.3 -16.5 -178.8 0 -189.3L0 0Z" fill="#e26860"></path><path d="M-126.2 0C-117.4 -11.9 -108.7 -23.7 -101.1 -32.9C-93.6 -42 -87.3 -48.4 -84.4 -61.3C-81.6 -74.3 -82.2 -93.7 -74.2 -102.1C-66.2 -110.5 -49.5 -107.8 -35.7 -110C-21.9 -112.2 -11 -119.2 0 -126.2L0 0Z" fill="#fa9448"></path><path d="M-63.1 0C-58.7 -5.9 -54.3 -11.9 -50.6 -16.4C-46.8 -21 -43.6 -24.2 -42.2 -30.7C-40.8 -37.1 -41.1 -46.8 -37.1 -51C-33.1 -55.2 -24.8 -53.9 -17.9 -55C-11 -56.1 -5.5 -59.6 0 -63.1L0 0Z" fill="#fbae3c"></path></g><g transform="translate(0, 0)"><path d="M378.6 0C351.6 35.9 324.7 71.8 300.5 97.6C276.4 123.5 254.9 139.4 247.6 179.9C240.2 220.3 246.9 285.3 222.5 306.3C198.2 327.3 142.7 304.4 100.4 309.1C58.2 313.8 29.1 346.2 0 378.6L0 0Z" fill="#3c3257"></path><path d="M315.5 0C293 29.9 270.6 59.8 250.4 81.4C230.3 102.9 212.4 116.2 206.3 149.9C200.2 183.6 205.8 237.7 185.4 255.2C165.1 272.7 118.9 253.6 83.7 257.6C48.5 261.5 24.2 288.5 0 315.5L0 0Z" fill="#773f6d"></path><path d="M252.4 0C234.4 23.9 216.5 47.8 200.4 65.1C184.2 82.4 169.9 93 165 119.9C160.1 146.9 164.6 190.2 148.4 204.2C132.1 218.2 95.1 202.9 67 206.1C38.8 209.2 19.4 230.8 0 252.4L0 0Z" fill="#b34e6f"></path><path d="M189.3 0C175.8 17.9 162.4 35.9 150.3 48.8C138.2 61.8 127.5 69.7 123.8 89.9C120.1 110.1 123.5 142.6 111.3 153.1C99.1 163.6 71.3 152.2 50.2 154.5C29.1 156.9 14.5 173.1 0 189.3L0 0Z" fill="#e26860"></path><path d="M126.2 0C117.2 12 108.2 23.9 100.2 32.5C92.1 41.2 85 46.5 82.5 60C80.1 73.4 82.3 95.1 74.2 102.1C66.1 109.1 47.6 101.5 33.5 103C19.4 104.6 9.7 115.4 0 126.2L0 0Z" fill="#fa9448"></path><path d="M63.1 0C58.6 6 54.1 12 50.1 16.3C46.1 20.6 42.5 23.2 41.3 30C40 36.7 41.2 47.5 37.1 51C33 54.5 23.8 50.7 16.7 51.5C9.7 52.3 4.8 57.7 0 63.1L0 0Z" fill="#fbae3c"></path></g></svg>