<svg id="visual" viewBox="0 0 900 450" width="900" height="450" xmlns="http://www.w3.org/2000/svg" xmlns:xlink="http://www.w3.org/1999/xlink" version="1.1"><rect x="0" y="0" width="900" height="450" fill="#232946"></rect><defs><linearGradient id="grad1_0" x1="50%" y1="100%" x2="100%" y2="0%"><stop offset="10%" stop-color="#fbae3c" stop-opacity="1"></stop><stop offset="90%" stop-color="#fbae3c" stop-opacity="1"></stop></linearGradient></defs><defs><linearGradient id="grad1_1" x1="50%" y1="100%" x2="100%" y2="0%"><stop offset="10%" stop-color="#fbae3c" stop-opacity="1"></stop><stop offset="90%" stop-color="#f17c54" stop-opacity="1"></stop></linearGradient></defs><defs><linearGradient id="grad1_2" x1="50%" y1="100%" x2="100%" y2="0%"><stop offset="10%" stop-color="#cd5969" stop-opacity="1"></stop><stop offset="90%" stop-color="#f17c54" stop-opacity="1"></stop></linearGradient></defs><defs><linearGradient id="grad1_3" x1="50%" y1="100%" x2="100%" y2="0%"><stop offset="10%" stop-color="#cd5969" stop-opacity="1"></stop><stop offset="90%" stop-color="#954670" stop-opacity="1"></stop></linearGradient></defs><defs><linearGradient id="grad1_4" x1="50%" y1="100%" x2="100%" y2="0%"><stop offset="10%" stop-color="#583964" stop-opacity="1"></stop><stop offset="90%" stop-color="#954670" stop-opacity="1"></stop></linearGradient></defs><defs><linearGradient id="grad1_5" x1="50%" y1="100%" x2="100%" y2="0%"><stop offset="10%" stop-color="#583964" stop-opacity="1"></stop><stop offset="90%" stop-color="#232946" stop-opacity="1"></stop></linearGradient></defs><defs><linearGradient id="grad2_0" x1="0%" y1="100%" x2="50%" y2="0%"><stop offset="10%" stop-color="#fbae3c" stop-opacity="1"></stop><stop offset="90%" stop-color="#fbae3c" stop-opacity="1"></stop></linearGradient></defs><defs><linearGradient id="grad2_1" x1="0%" y1="100%" x2="50%" y2="0%"><stop offset="10%" stop-color="#f17c54" stop-opacity="1"></stop><stop offset="90%" stop-color="#fbae3c" stop-opacity="1"></stop></linearGradient></defs><defs><linearGradient id="grad2_2" x1="0%" y1="100%" x2="50%" y2="0%"><stop offset="10%" stop-color="#f17c54" stop-opacity="1"></stop><stop offset="90%" stop-color="#cd5969" stop-opacity="1"></stop></linearGradient></defs><defs><linearGradient id="grad2_3" x1="0%" y1="100%" x2="50%" y2="0%"><stop offset="10%" stop-color="#954670" stop-opacity="1"></stop><stop offset="90%" stop-color="#cd5969" stop-opacity="1"></stop></linearGradient></defs><defs><linearGradient id="grad2_4" x1="0%" y1="100%" x2="50%" y2="0%"><stop offset="10%" stop-color="#954670" stop-opacity="1"></stop><stop offset="90%" stop-color="#583964" stop-opacity="1"></stop></linearGradient></defs><defs><linearGradient id="grad2_5" x1="0%" y1="100%" x2="50%" y2="0%"><stop offset="10%" stop-color="#232946" stop-opacity="1"></stop><stop offset="90%" stop-color="#583964" stop-opacity="1"></stop></linearGradient></defs><g transform="translate(900, 450)"><path d="M-315 0C-309.8 -30.9 -304.6 -61.9 -298.6 -97C-292.7 -132.2 -285.9 -171.6 -254.8 -185.2C-223.8 -198.7 -168.4 -186.2 -135.2 -186.1C-102 -185.9 -90.8 -198.1 -72 -221.6C-53.2 -245.1 -26.6 -280.1 0 -315L0 0Z" fill="#3c3257"></path><path d="M-262.5 0C-258.2 -25.8 -253.8 -51.5 -248.9 -80.9C-243.9 -110.2 -238.2 -143 -212.4 -154.3C-186.5 -165.5 -140.4 -155.2 -112.7 -155.1C-85 -154.9 -75.7 -165.1 -60 -184.7C-44.3 -204.3 -22.1 -233.4 0 -262.5L0 0Z" fill="#773f6d"></path><path d="M-210 0C-206.5 -20.6 -203.1 -41.2 -199.1 -64.7C-195.1 -88.1 -190.6 -114.4 -169.9 -123.4C-149.2 -132.4 -112.3 -124.1 -90.1 -124C-68 -124 -60.6 -132 -48 -147.7C-35.4 -163.4 -17.7 -186.7 0 -210L0 0Z" fill="#b34e6f"></path><path d="M-157.5 0C-154.9 -15.5 -152.3 -30.9 -149.3 -48.5C-146.3 -66.1 -142.9 -85.8 -127.4 -92.6C-111.9 -99.3 -84.2 -93.1 -67.6 -93C-51 -93 -45.4 -99 -36 -110.8C-26.6 -122.6 -13.3 -140 0 -157.5L0 0Z" fill="#e26860"></path><path d="M-105 0C-103.3 -10.3 -101.5 -20.6 -99.5 -32.3C-97.6 -44.1 -95.3 -57.2 -84.9 -61.7C-74.6 -66.2 -56.1 -62.1 -45.1 -62C-34 -62 -30.3 -66 -24 -73.9C-17.7 -81.7 -8.9 -93.4 0 -105L0 0Z" fill="#fa9448"></path><path d="M-52.5 0C-51.6 -5.2 -50.8 -10.3 -49.8 -16.2C-48.8 -22 -47.6 -28.6 -42.5 -30.9C-37.3 -33.1 -28.1 -31 -22.5 -31C-17 -31 -15.1 -33 -12 -36.9C-8.9 -40.9 -4.4 -46.7 0 -52.5L0 0Z" fill="#fbae3c"></path></g><g transform="translate(0, 0)"><path d="M315 0C292.6 28.4 270.2 56.7 255.8 83.1C241.4 109.5 235 133.9 226.5 164.6C218.1 195.2 207.6 232.1 185.2 254.8C162.7 277.6 128.3 286.2 95.5 293.9C62.6 301.5 31.3 308.3 0 315L0 0Z" fill="#3c3257"></path><path d="M262.5 0C243.9 23.6 225.2 47.3 213.2 69.3C201.2 91.3 195.8 111.6 188.8 137.1C181.7 162.7 173 193.4 154.3 212.4C135.6 231.3 106.9 238.5 79.6 244.9C52.2 251.3 26.1 256.9 0 262.5L0 0Z" fill="#773f6d"></path><path d="M210 0C195.1 18.9 180.2 37.8 170.6 55.4C161 73 156.7 89.3 151 109.7C145.4 130.1 138.4 154.7 123.4 169.9C108.5 185.1 85.6 190.8 63.7 195.9C41.8 201 20.9 205.5 0 210L0 0Z" fill="#b34e6f"></path><path d="M157.5 0C146.3 14.2 135.1 28.4 127.9 41.6C120.7 54.8 117.5 67 113.3 82.3C109 97.6 103.8 116 92.6 127.4C81.4 138.8 64.2 143.1 47.7 146.9C31.3 150.8 15.7 154.1 0 157.5L0 0Z" fill="#e26860"></path><path d="M105 0C97.5 9.5 90.1 18.9 85.3 27.7C80.5 36.5 78.3 44.6 75.5 54.9C72.7 65.1 69.2 77.4 61.7 84.9C54.2 92.5 42.8 95.4 31.8 98C20.9 100.5 10.4 102.8 0 105L0 0Z" fill="#fa9448"></path><path d="M52.5 0C48.8 4.7 45 9.5 42.6 13.9C40.2 18.3 39.2 22.3 37.8 27.4C36.3 32.5 34.6 38.7 30.9 42.5C27.1 46.3 21.4 47.7 15.9 49C10.4 50.3 5.2 51.4 0 52.5L0 0Z" fill="#fbae3c"></path></g></svg>