<svg id="visual" viewBox="0 0 1080 100" width="1080" height="100" xmlns="http://www.w3.org/2000/svg" xmlns:xlink="http://www.w3.org/1999/xlink" version="1.1"><path d="M0 15L18 17.5C36 20 72 25 108 26.2C144 27.3 180 24.7 216 24.8C252 25 288 28 324 30.2C360 32.3 396 33.7 432 32.5C468 31.3 504 27.7 540 25.2C576 22.7 612 21.3 648 22.8C684 24.3 720 28.7 756 28.3C792 28 828 23 864 23.8C900 24.7 936 31.3 972 32.2C1008 33 1044 28 1062 25.5L1080 23L1080 101L1062 101C1044 101 1008 101 972 101C936 101 900 101 864 101C828 101 792 101 756 101C720 101 684 101 648 101C612 101 576 101 540 101C504 101 468 101 432 101C396 101 360 101 324 101C288 101 252 101 216 101C180 101 144 101 108 101C72 101 36 101 18 101L0 101Z" fill="#fffffe"></path><path d="M0 36L18 37.2C36 38.3 72 40.7 108 40.3C144 40 180 37 216 34.3C252 31.7 288 29.3 324 30.3C360 31.3 396 35.7 432 38.3C468 41 504 42 540 43C576 44 612 45 648 44.3C684 43.7 720 41.3 756 37.8C792 34.3 828 29.7 864 27.3C900 25 936 25 972 27.8C1008 30.7 1044 36.3 1062 39.2L1080 42L1080 101L1062 101C1044 101 1008 101 972 101C936 101 900 101 864 101C828 101 792 101 756 101C720 101 684 101 648 101C612 101 576 101 540 101C504 101 468 101 432 101C396 101 360 101 324 101C288 101 252 101 216 101C180 101 144 101 108 101C72 101 36 101 18 101L0 101Z" fill="#f3d2a9"></path><path d="M0 51L18 49.7C36 48.3 72 45.7 108 44.3C144 43 180 43 216 44.8C252 46.7 288 50.3 324 49.8C360 49.3 396 44.7 432 44C468 43.3 504 46.7 540 49.3C576 52 612 54 648 53C684 52 720 48 756 47.2C792 46.3 828 48.7 864 48C900 47.3 936 43.7 972 42.8C1008 42 1044 44 1062 45L1080 46L1080 101L1062 101C1044 101 1008 101 972 101C936 101 900 101 864 101C828 101 792 101 756 101C720 101 684 101 648 101C612 101 576 101 540 101C504 101 468 101 432 101C396 101 360 101 324 101C288 101 252 101 216 101C180 101 144 101 108 101C72 101 36 101 18 101L0 101Z" fill="#fd9473"></path><path d="M0 46L18 48.2C36 50.3 72 54.7 108 55C144 55.3 180 51.7 216 51.3C252 51 288 54 324 53.8C360 53.7 396 50.3 432 50.7C468 51 504 55 540 56.2C576 57.3 612 55.7 648 56.7C684 57.7 720 61.3 756 63C792 64.7 828 64.3 864 63.8C900 63.3 936 62.7 972 61.5C1008 60.3 1044 58.7 1062 57.8L1080 57L1080 101L1062 101C1044 101 1008 101 972 101C936 101 900 101 864 101C828 101 792 101 756 101C720 101 684 101 648 101C612 101 576 101 540 101C504 101 468 101 432 101C396 101 360 101 324 101C288 101 252 101 216 101C180 101 144 101 108 101C72 101 36 101 18 101L0 101Z" fill="#ff5470"></path><path d="M0 61L18 62.8C36 64.7 72 68.3 108 68.2C144 68 180 64 216 62.3C252 60.7 288 61.3 324 63.3C360 65.3 396 68.7 432 67.8C468 67 504 62 540 59.8C576 57.7 612 58.3 648 57.7C684 57 720 55 756 55.5C792 56 828 59 864 61.3C900 63.7 936 65.3 972 65.2C1008 65 1044 63 1062 62L1080 61L1080 101L1062 101C1044 101 1008 101 972 101C936 101 900 101 864 101C828 101 792 101 756 101C720 101 684 101 648 101C612 101 576 101 540 101C504 101 468 101 432 101C396 101 360 101 324 101C288 101 252 101 216 101C180 101 144 101 108 101C72 101 36 101 18 101L0 101Z" fill="#ff5470"></path><path d="M0 69L18 70C36 71 72 73 108 74.2C144 75.3 180 75.7 216 74.8C252 74 288 72 324 72.3C360 72.7 396 75.3 432 76.7C468 78 504 78 540 76.2C576 74.3 612 70.7 648 68.8C684 67 720 67 756 66.7C792 66.3 828 65.7 864 65.5C900 65.3 936 65.7 972 65.7C1008 65.7 1044 65.3 1062 65.2L1080 65L1080 101L1062 101C1044 101 1008 101 972 101C936 101 900 101 864 101C828 101 792 101 756 101C720 101 684 101 648 101C612 101 576 101 540 101C504 101 468 101 432 101C396 101 360 101 324 101C288 101 252 101 216 101C180 101 144 101 108 101C72 101 36 101 18 101L0 101Z" fill="#fd9473"></path><path d="M0 75L18 76.7C36 78.3 72 81.7 108 82.5C144 83.3 180 81.7 216 80.8C252 80 288 80 324 79.3C360 78.7 396 77.3 432 77.5C468 77.7 504 79.3 540 79.7C576 80 612 79 648 79.3C684 79.7 720 81.3 756 82C792 82.7 828 82.3 864 80.8C900 79.3 936 76.7 972 76.5C1008 76.3 1044 78.7 1062 79.8L1080 81L1080 101L1062 101C1044 101 1008 101 972 101C936 101 900 101 864 101C828 101 792 101 756 101C720 101 684 101 648 101C612 101 576 101 540 101C504 101 468 101 432 101C396 101 360 101 324 101C288 101 252 101 216 101C180 101 144 101 108 101C72 101 36 101 18 101L0 101Z" fill="#f3d2a9"></path><path d="M0 83L18 83.2C36 83.3 72 83.7 108 85.3C144 87 180 90 216 90.2C252 90.3 288 87.7 324 87.3C360 87 396 89 432 89.3C468 89.7 504 88.3 540 88.5C576 88.7 612 90.3 648 91.2C684 92 720 92 756 92.2C792 92.3 828 92.7 864 91.2C900 89.7 936 86.3 972 85C1008 83.7 1044 84.3 1062 84.7L1080 85L1080 101L1062 101C1044 101 1008 101 972 101C936 101 900 101 864 101C828 101 792 101 756 101C720 101 684 101 648 101C612 101 576 101 540 101C504 101 468 101 432 101C396 101 360 101 324 101C288 101 252 101 216 101C180 101 144 101 108 101C72 101 36 101 18 101L0 101Z" fill="#fffffe"></path></svg>