<svg id="visual" viewBox="0 0 1080 100" width="1080" height="100" xmlns="http://www.w3.org/2000/svg" xmlns:xlink="http://www.w3.org/1999/xlink" version="1.1"><path d="M0 39L18 35.7C36 32.3 72 25.7 108 23.7C144 21.7 180 24.3 216 27.3C252 30.3 288 33.7 324 36.3C360 39 396 41 432 38.5C468 36 504 29 540 29.3C576 29.7 612 37.3 648 39.5C684 41.7 720 38.3 756 34.8C792 31.3 828 27.7 864 25C900 22.3 936 20.7 972 19.5C1008 18.3 1044 17.7 1062 17.3L1080 17L1080 101L1062 101C1044 101 1008 101 972 101C936 101 900 101 864 101C828 101 792 101 756 101C720 101 684 101 648 101C612 101 576 101 540 101C504 101 468 101 432 101C396 101 360 101 324 101C288 101 252 101 216 101C180 101 144 101 108 101C72 101 36 101 18 101L0 101Z" fill="#fffffe"></path><path d="M0 52L18 49.5C36 47 72 42 108 37.5C144 33 180 29 216 27.7C252 26.3 288 27.7 324 31.2C360 34.7 396 40.3 432 39.8C468 39.3 504 32.7 540 29.7C576 26.7 612 27.3 648 29.8C684 32.3 720 36.7 756 38.8C792 41 828 41 864 39.2C900 37.3 936 33.7 972 35.3C1008 37 1044 44 1062 47.5L1080 51L1080 101L1062 101C1044 101 1008 101 972 101C936 101 900 101 864 101C828 101 792 101 756 101C720 101 684 101 648 101C612 101 576 101 540 101C504 101 468 101 432 101C396 101 360 101 324 101C288 101 252 101 216 101C180 101 144 101 108 101C72 101 36 101 18 101L0 101Z" fill="#f3d2a9"></path><path d="M0 39L18 41.3C36 43.7 72 48.3 108 50.7C144 53 180 53 216 53.7C252 54.3 288 55.7 324 53.3C360 51 396 45 432 43.5C468 42 504 45 540 47.8C576 50.7 612 53.3 648 54.2C684 55 720 54 756 51.3C792 48.7 828 44.3 864 43.2C900 42 936 44 972 46.2C1008 48.3 1044 50.7 1062 51.8L1080 53L1080 101L1062 101C1044 101 1008 101 972 101C936 101 900 101 864 101C828 101 792 101 756 101C720 101 684 101 648 101C612 101 576 101 540 101C504 101 468 101 432 101C396 101 360 101 324 101C288 101 252 101 216 101C180 101 144 101 108 101C72 101 36 101 18 101L0 101Z" fill="#fd9473"></path><path d="M0 65L18 64.5C36 64 72 63 108 60.7C144 58.3 180 54.7 216 55.2C252 55.7 288 60.3 324 62.2C360 64 396 63 432 61C468 59 504 56 540 55.2C576 54.3 612 55.7 648 57.7C684 59.7 720 62.3 756 63.3C792 64.3 828 63.7 864 60.8C900 58 936 53 972 50C1008 47 1044 46 1062 45.5L1080 45L1080 101L1062 101C1044 101 1008 101 972 101C936 101 900 101 864 101C828 101 792 101 756 101C720 101 684 101 648 101C612 101 576 101 540 101C504 101 468 101 432 101C396 101 360 101 324 101C288 101 252 101 216 101C180 101 144 101 108 101C72 101 36 101 18 101L0 101Z" fill="#ff5470"></path><path d="M0 72L18 70C36 68 72 64 108 62.8C144 61.7 180 63.3 216 62.8C252 62.3 288 59.7 324 57.8C360 56 396 55 432 57.2C468 59.3 504 64.7 540 65.3C576 66 612 62 648 61.2C684 60.3 720 62.7 756 64.5C792 66.3 828 67.7 864 67.8C900 68 936 67 972 66.3C1008 65.7 1044 65.3 1062 65.2L1080 65L1080 101L1062 101C1044 101 1008 101 972 101C936 101 900 101 864 101C828 101 792 101 756 101C720 101 684 101 648 101C612 101 576 101 540 101C504 101 468 101 432 101C396 101 360 101 324 101C288 101 252 101 216 101C180 101 144 101 108 101C72 101 36 101 18 101L0 101Z" fill="#ff5470"></path><path d="M0 74L18 73.2C36 72.3 72 70.7 108 71.3C144 72 180 75 216 75.3C252 75.7 288 73.3 324 73.5C360 73.7 396 76.3 432 77.2C468 78 504 77 540 76.8C576 76.7 612 77.3 648 77.7C684 78 720 78 756 76.5C792 75 828 72 864 69.7C900 67.3 936 65.7 972 65.5C1008 65.3 1044 66.7 1062 67.3L1080 68L1080 101L1062 101C1044 101 1008 101 972 101C936 101 900 101 864 101C828 101 792 101 756 101C720 101 684 101 648 101C612 101 576 101 540 101C504 101 468 101 432 101C396 101 360 101 324 101C288 101 252 101 216 101C180 101 144 101 108 101C72 101 36 101 18 101L0 101Z" fill="#fd9473"></path><path d="M0 85L18 85.2C36 85.3 72 85.7 108 84.3C144 83 180 80 216 79.3C252 78.7 288 80.3 324 81.5C360 82.7 396 83.3 432 83.3C468 83.3 504 82.7 540 82.5C576 82.3 612 82.7 648 82C684 81.3 720 79.7 756 78.3C792 77 828 76 864 76.5C900 77 936 79 972 78.7C1008 78.3 1044 75.7 1062 74.3L1080 73L1080 101L1062 101C1044 101 1008 101 972 101C936 101 900 101 864 101C828 101 792 101 756 101C720 101 684 101 648 101C612 101 576 101 540 101C504 101 468 101 432 101C396 101 360 101 324 101C288 101 252 101 216 101C180 101 144 101 108 101C72 101 36 101 18 101L0 101Z" fill="#f3d2a9"></path><path d="M0 89L18 88.8C36 88.7 72 88.3 108 88.8C144 89.3 180 90.7 216 91.5C252 92.3 288 92.7 324 92.5C360 92.3 396 91.7 432 91.3C468 91 504 91 540 90.5C576 90 612 89 648 88C684 87 720 86 756 85.5C792 85 828 85 864 86C900 87 936 89 972 90C1008 91 1044 91 1062 91L1080 91L1080 101L1062 101C1044 101 1008 101 972 101C936 101 900 101 864 101C828 101 792 101 756 101C720 101 684 101 648 101C612 101 576 101 540 101C504 101 468 101 432 101C396 101 360 101 324 101C288 101 252 101 216 101C180 101 144 101 108 101C72 101 36 101 18 101L0 101Z" fill="#fffffe"></path></svg>