<svg id="visual" viewBox="0 0 1080 100" width="1080" height="100" xmlns="http://www.w3.org/2000/svg" xmlns:xlink="http://www.w3.org/1999/xlink" version="1.1"><path d="M0 23L18 22.5C36 22 72 21 108 24.3C144 27.7 180 35.3 216 36.3C252 37.3 288 31.7 324 30C360 28.3 396 30.7 432 31.2C468 31.7 504 30.3 540 31.5C576 32.7 612 36.3 648 34.8C684 33.3 720 26.7 756 24C792 21.3 828 22.7 864 22.5C900 22.3 936 20.7 972 21.3C1008 22 1044 25 1062 26.5L1080 28L1080 101L1062 101C1044 101 1008 101 972 101C936 101 900 101 864 101C828 101 792 101 756 101C720 101 684 101 648 101C612 101 576 101 540 101C504 101 468 101 432 101C396 101 360 101 324 101C288 101 252 101 216 101C180 101 144 101 108 101C72 101 36 101 18 101L0 101Z" fill="#232946"></path><path d="M0 41L18 39.2C36 37.3 72 33.7 108 30.8C144 28 180 26 216 29.3C252 32.7 288 41.3 324 41.5C360 41.7 396 33.3 432 30.3C468 27.3 504 29.7 540 31.3C576 33 612 34 648 34.8C684 35.7 720 36.3 756 39C792 41.7 828 46.3 864 45.5C900 44.7 936 38.3 972 35.2C1008 32 1044 32 1062 32L1080 32L1080 101L1062 101C1044 101 1008 101 972 101C936 101 900 101 864 101C828 101 792 101 756 101C720 101 684 101 648 101C612 101 576 101 540 101C504 101 468 101 432 101C396 101 360 101 324 101C288 101 252 101 216 101C180 101 144 101 108 101C72 101 36 101 18 101L0 101Z" fill="#53747e"></path><path d="M0 51L18 49.8C36 48.7 72 46.3 108 44.5C144 42.7 180 41.3 216 42.8C252 44.3 288 48.7 324 48.5C360 48.3 396 43.7 432 44.5C468 45.3 504 51.7 540 52C576 52.3 612 46.7 648 45C684 43.3 720 45.7 756 48C792 50.3 828 52.7 864 50.7C900 48.7 936 42.3 972 39C1008 35.7 1044 35.3 1062 35.2L1080 35L1080 101L1062 101C1044 101 1008 101 972 101C936 101 900 101 864 101C828 101 792 101 756 101C720 101 684 101 648 101C612 101 576 101 540 101C504 101 468 101 432 101C396 101 360 101 324 101C288 101 252 101 216 101C180 101 144 101 108 101C72 101 36 101 18 101L0 101Z" fill="#b2bfb9"></path><path d="M0 53L18 52.8C36 52.7 72 52.3 108 53.5C144 54.7 180 57.3 216 56.2C252 55 288 50 324 49.8C360 49.7 396 54.3 432 56.3C468 58.3 504 57.7 540 57.2C576 56.7 612 56.3 648 57.2C684 58 720 60 756 58.3C792 56.7 828 51.3 864 50.7C900 50 936 54 972 54.3C1008 54.7 1044 51.3 1062 49.7L1080 48L1080 101L1062 101C1044 101 1008 101 972 101C936 101 900 101 864 101C828 101 792 101 756 101C720 101 684 101 648 101C612 101 576 101 540 101C504 101 468 101 432 101C396 101 360 101 324 101C288 101 252 101 216 101C180 101 144 101 108 101C72 101 36 101 18 101L0 101Z" fill="#fffffe"></path><path d="M0 70L18 69.8C36 69.7 72 69.3 108 68.8C144 68.3 180 67.7 216 66.5C252 65.3 288 63.7 324 62.5C360 61.3 396 60.7 432 61.5C468 62.3 504 64.7 540 66C576 67.3 612 67.7 648 67.8C684 68 720 68 756 66C792 64 828 60 864 58.8C900 57.7 936 59.3 972 59C1008 58.7 1044 56.3 1062 55.2L1080 54L1080 101L1062 101C1044 101 1008 101 972 101C936 101 900 101 864 101C828 101 792 101 756 101C720 101 684 101 648 101C612 101 576 101 540 101C504 101 468 101 432 101C396 101 360 101 324 101C288 101 252 101 216 101C180 101 144 101 108 101C72 101 36 101 18 101L0 101Z" fill="#fffffe"></path><path d="M0 65L18 66C36 67 72 69 108 69.8C144 70.7 180 70.3 216 71.3C252 72.3 288 74.7 324 75.3C360 76 396 75 432 75C468 75 504 76 540 75.7C576 75.3 612 73.7 648 72.7C684 71.7 720 71.3 756 70.7C792 70 828 69 864 69.2C900 69.3 936 70.7 972 72.5C1008 74.3 1044 76.7 1062 77.8L1080 79L1080 101L1062 101C1044 101 1008 101 972 101C936 101 900 101 864 101C828 101 792 101 756 101C720 101 684 101 648 101C612 101 576 101 540 101C504 101 468 101 432 101C396 101 360 101 324 101C288 101 252 101 216 101C180 101 144 101 108 101C72 101 36 101 18 101L0 101Z" fill="#b2bfb9"></path><path d="M0 79L18 78.3C36 77.7 72 76.3 108 76.2C144 76 180 77 216 78.5C252 80 288 82 324 82.7C360 83.3 396 82.7 432 81.7C468 80.7 504 79.3 540 80C576 80.7 612 83.3 648 84.2C684 85 720 84 756 83.3C792 82.7 828 82.3 864 82.8C900 83.3 936 84.7 972 84.2C1008 83.7 1044 81.3 1062 80.2L1080 79L1080 101L1062 101C1044 101 1008 101 972 101C936 101 900 101 864 101C828 101 792 101 756 101C720 101 684 101 648 101C612 101 576 101 540 101C504 101 468 101 432 101C396 101 360 101 324 101C288 101 252 101 216 101C180 101 144 101 108 101C72 101 36 101 18 101L0 101Z" fill="#53747e"></path><path d="M0 84L18 85.2C36 86.3 72 88.7 108 89.3C144 90 180 89 216 88.8C252 88.7 288 89.3 324 88.5C360 87.7 396 85.3 432 84.3C468 83.3 504 83.7 540 84C576 84.3 612 84.7 648 85.8C684 87 720 89 756 90C792 91 828 91 864 90.8C900 90.7 936 90.3 972 90.7C1008 91 1044 92 1062 92.5L1080 93L1080 101L1062 101C1044 101 1008 101 972 101C936 101 900 101 864 101C828 101 792 101 756 101C720 101 684 101 648 101C612 101 576 101 540 101C504 101 468 101 432 101C396 101 360 101 324 101C288 101 252 101 216 101C180 101 144 101 108 101C72 101 36 101 18 101L0 101Z" fill="#232946"></path></svg>