<svg id="visual" viewBox="0 0 1080 100" width="1080" height="100" xmlns="http://www.w3.org/2000/svg" xmlns:xlink="http://www.w3.org/1999/xlink" version="1.1"><path d="M0 30L18 28.2C36 26.3 72 22.7 108 20.7C144 18.7 180 18.3 216 20.2C252 22 288 26 324 27C360 28 396 26 432 27.8C468 29.7 504 35.3 540 34.3C576 33.3 612 25.7 648 24.3C684 23 720 28 756 27.8C792 27.7 828 22.3 864 19.3C900 16.3 936 15.7 972 16.8C1008 18 1044 21 1062 22.5L1080 24L1080 101L1062 101C1044 101 1008 101 972 101C936 101 900 101 864 101C828 101 792 101 756 101C720 101 684 101 648 101C612 101 576 101 540 101C504 101 468 101 432 101C396 101 360 101 324 101C288 101 252 101 216 101C180 101 144 101 108 101C72 101 36 101 18 101L0 101Z" fill="#232946"></path><path d="M0 32L18 31C36 30 72 28 108 26.8C144 25.7 180 25.3 216 28.3C252 31.3 288 37.7 324 39.3C360 41 396 38 432 37.3C468 36.7 504 38.3 540 37.3C576 36.3 612 32.7 648 31.2C684 29.7 720 30.3 756 32.5C792 34.7 828 38.3 864 38.2C900 38 936 34 972 31.8C1008 29.7 1044 29.3 1062 29.2L1080 29L1080 101L1062 101C1044 101 1008 101 972 101C936 101 900 101 864 101C828 101 792 101 756 101C720 101 684 101 648 101C612 101 576 101 540 101C504 101 468 101 432 101C396 101 360 101 324 101C288 101 252 101 216 101C180 101 144 101 108 101C72 101 36 101 18 101L0 101Z" fill="#53747e"></path><path d="M0 48L18 46.8C36 45.7 72 43.3 108 42.3C144 41.3 180 41.7 216 42.5C252 43.3 288 44.7 324 46.8C360 49 396 52 432 50.5C468 49 504 43 540 41.8C576 40.7 612 44.3 648 47.2C684 50 720 52 756 51.3C792 50.7 828 47.3 864 46C900 44.7 936 45.3 972 47.7C1008 50 1044 54 1062 56L1080 58L1080 101L1062 101C1044 101 1008 101 972 101C936 101 900 101 864 101C828 101 792 101 756 101C720 101 684 101 648 101C612 101 576 101 540 101C504 101 468 101 432 101C396 101 360 101 324 101C288 101 252 101 216 101C180 101 144 101 108 101C72 101 36 101 18 101L0 101Z" fill="#b2bfb9"></path><path d="M0 50L18 50.3C36 50.7 72 51.3 108 53.5C144 55.7 180 59.3 216 61C252 62.7 288 62.3 324 61.3C360 60.3 396 58.7 432 55.7C468 52.7 504 48.3 540 48.3C576 48.3 612 52.7 648 53.3C684 54 720 51 756 50.7C792 50.3 828 52.7 864 52.7C900 52.7 936 50.3 972 51.2C1008 52 1044 56 1062 58L1080 60L1080 101L1062 101C1044 101 1008 101 972 101C936 101 900 101 864 101C828 101 792 101 756 101C720 101 684 101 648 101C612 101 576 101 540 101C504 101 468 101 432 101C396 101 360 101 324 101C288 101 252 101 216 101C180 101 144 101 108 101C72 101 36 101 18 101L0 101Z" fill="#fffffe"></path><path d="M0 68L18 65.8C36 63.7 72 59.3 108 58.8C144 58.3 180 61.7 216 64.3C252 67 288 69 324 67.3C360 65.7 396 60.3 432 57.5C468 54.7 504 54.3 540 56.3C576 58.3 612 62.7 648 62.7C684 62.7 720 58.3 756 57C792 55.7 828 57.3 864 57.8C900 58.3 936 57.7 972 57.7C1008 57.7 1044 58.3 1062 58.7L1080 59L1080 101L1062 101C1044 101 1008 101 972 101C936 101 900 101 864 101C828 101 792 101 756 101C720 101 684 101 648 101C612 101 576 101 540 101C504 101 468 101 432 101C396 101 360 101 324 101C288 101 252 101 216 101C180 101 144 101 108 101C72 101 36 101 18 101L0 101Z" fill="#fffffe"></path><path d="M0 78L18 76.3C36 74.7 72 71.3 108 69.5C144 67.7 180 67.3 216 68.3C252 69.3 288 71.7 324 72.8C360 74 396 74 432 72.7C468 71.3 504 68.7 540 67C576 65.3 612 64.7 648 64.2C684 63.7 720 63.3 756 64.3C792 65.3 828 67.7 864 69.2C900 70.7 936 71.3 972 70.8C1008 70.3 1044 68.7 1062 67.8L1080 67L1080 101L1062 101C1044 101 1008 101 972 101C936 101 900 101 864 101C828 101 792 101 756 101C720 101 684 101 648 101C612 101 576 101 540 101C504 101 468 101 432 101C396 101 360 101 324 101C288 101 252 101 216 101C180 101 144 101 108 101C72 101 36 101 18 101L0 101Z" fill="#b2bfb9"></path><path d="M0 82L18 82.3C36 82.7 72 83.3 108 83.8C144 84.3 180 84.7 216 83.5C252 82.3 288 79.7 324 78.2C360 76.7 396 76.3 432 76.2C468 76 504 76 540 76.3C576 76.7 612 77.3 648 78.5C684 79.7 720 81.3 756 82C792 82.7 828 82.3 864 82.3C900 82.3 936 82.7 972 83.2C1008 83.7 1044 84.3 1062 84.7L1080 85L1080 101L1062 101C1044 101 1008 101 972 101C936 101 900 101 864 101C828 101 792 101 756 101C720 101 684 101 648 101C612 101 576 101 540 101C504 101 468 101 432 101C396 101 360 101 324 101C288 101 252 101 216 101C180 101 144 101 108 101C72 101 36 101 18 101L0 101Z" fill="#53747e"></path><path d="M0 90L18 89.8C36 89.7 72 89.3 108 88.7C144 88 180 87 216 87.3C252 87.7 288 89.3 324 90.3C360 91.3 396 91.7 432 92C468 92.3 504 92.7 540 91.8C576 91 612 89 648 87.5C684 86 720 85 756 84.7C792 84.3 828 84.7 864 85.5C900 86.3 936 87.7 972 88.3C1008 89 1044 89 1062 89L1080 89L1080 101L1062 101C1044 101 1008 101 972 101C936 101 900 101 864 101C828 101 792 101 756 101C720 101 684 101 648 101C612 101 576 101 540 101C504 101 468 101 432 101C396 101 360 101 324 101C288 101 252 101 216 101C180 101 144 101 108 101C72 101 36 101 18 101L0 101Z" fill="#232946"></path></svg>