<svg id="visual" viewBox="0 0 1080 100" width="1080" height="100" xmlns="http://www.w3.org/2000/svg" xmlns:xlink="http://www.w3.org/1999/xlink" version="1.1"><path d="M0 34L18 31.5C36 29 72 24 108 21.3C144 18.7 180 18.3 216 19.8C252 21.3 288 24.7 324 28.2C360 31.7 396 35.3 432 36.5C468 37.7 504 36.3 540 36.3C576 36.3 612 37.7 648 35.7C684 33.7 720 28.3 756 28.3C792 28.3 828 33.7 864 35.7C900 37.7 936 36.3 972 32.8C1008 29.3 1044 23.7 1062 20.8L1080 18L1080 101L1062 101C1044 101 1008 101 972 101C936 101 900 101 864 101C828 101 792 101 756 101C720 101 684 101 648 101C612 101 576 101 540 101C504 101 468 101 432 101C396 101 360 101 324 101C288 101 252 101 216 101C180 101 144 101 108 101C72 101 36 101 18 101L0 101Z" fill="#fffffe"></path><path d="M0 48L18 44.7C36 41.3 72 34.7 108 34.7C144 34.7 180 41.3 216 44.8C252 48.3 288 48.7 324 46.2C360 43.7 396 38.3 432 38C468 37.7 504 42.3 540 45.3C576 48.3 612 49.7 648 49C684 48.3 720 45.7 756 43.8C792 42 828 41 864 38.8C900 36.7 936 33.3 972 31C1008 28.7 1044 27.3 1062 26.7L1080 26L1080 101L1062 101C1044 101 1008 101 972 101C936 101 900 101 864 101C828 101 792 101 756 101C720 101 684 101 648 101C612 101 576 101 540 101C504 101 468 101 432 101C396 101 360 101 324 101C288 101 252 101 216 101C180 101 144 101 108 101C72 101 36 101 18 101L0 101Z" fill="#f3d2a9"></path><path d="M0 38L18 39.7C36 41.3 72 44.7 108 44.3C144 44 180 40 216 41.2C252 42.3 288 48.7 324 49.7C360 50.7 396 46.3 432 45C468 43.7 504 45.3 540 47.8C576 50.3 612 53.7 648 53.8C684 54 720 51 756 47.8C792 44.7 828 41.3 864 42.3C900 43.3 936 48.7 972 49.2C1008 49.7 1044 45.3 1062 43.2L1080 41L1080 101L1062 101C1044 101 1008 101 972 101C936 101 900 101 864 101C828 101 792 101 756 101C720 101 684 101 648 101C612 101 576 101 540 101C504 101 468 101 432 101C396 101 360 101 324 101C288 101 252 101 216 101C180 101 144 101 108 101C72 101 36 101 18 101L0 101Z" fill="#fd9473"></path><path d="M0 51L18 51.8C36 52.7 72 54.3 108 55.3C144 56.3 180 56.7 216 55.7C252 54.7 288 52.3 324 52.2C360 52 396 54 432 53.7C468 53.3 504 50.7 540 51.7C576 52.7 612 57.3 648 56.5C684 55.7 720 49.3 756 49.5C792 49.7 828 56.3 864 58.8C900 61.3 936 59.7 972 58.7C1008 57.7 1044 57.3 1062 57.2L1080 57L1080 101L1062 101C1044 101 1008 101 972 101C936 101 900 101 864 101C828 101 792 101 756 101C720 101 684 101 648 101C612 101 576 101 540 101C504 101 468 101 432 101C396 101 360 101 324 101C288 101 252 101 216 101C180 101 144 101 108 101C72 101 36 101 18 101L0 101Z" fill="#ff5470"></path><path d="M0 53L18 55.8C36 58.7 72 64.3 108 65.3C144 66.3 180 62.7 216 61C252 59.3 288 59.7 324 60C360 60.3 396 60.7 432 60C468 59.3 504 57.7 540 58.5C576 59.3 612 62.7 648 65.2C684 67.7 720 69.3 756 69.7C792 70 828 69 864 68.2C900 67.3 936 66.7 972 66C1008 65.3 1044 64.7 1062 64.3L1080 64L1080 101L1062 101C1044 101 1008 101 972 101C936 101 900 101 864 101C828 101 792 101 756 101C720 101 684 101 648 101C612 101 576 101 540 101C504 101 468 101 432 101C396 101 360 101 324 101C288 101 252 101 216 101C180 101 144 101 108 101C72 101 36 101 18 101L0 101Z" fill="#ff5470"></path><path d="M0 63L18 65.3C36 67.7 72 72.3 108 74.5C144 76.7 180 76.3 216 76.2C252 76 288 76 324 76.5C360 77 396 78 432 76.5C468 75 504 71 540 70.3C576 69.7 612 72.3 648 72.8C684 73.3 720 71.7 756 71.5C792 71.3 828 72.7 864 73.2C900 73.7 936 73.3 972 71.5C1008 69.7 1044 66.3 1062 64.7L1080 63L1080 101L1062 101C1044 101 1008 101 972 101C936 101 900 101 864 101C828 101 792 101 756 101C720 101 684 101 648 101C612 101 576 101 540 101C504 101 468 101 432 101C396 101 360 101 324 101C288 101 252 101 216 101C180 101 144 101 108 101C72 101 36 101 18 101L0 101Z" fill="#fd9473"></path><path d="M0 80L18 80.2C36 80.3 72 80.7 108 79.8C144 79 180 77 216 76.3C252 75.7 288 76.3 324 76.5C360 76.7 396 76.3 432 77C468 77.7 504 79.3 540 79.3C576 79.3 612 77.7 648 76.7C684 75.7 720 75.3 756 75.8C792 76.3 828 77.7 864 79.5C900 81.3 936 83.7 972 84.3C1008 85 1044 84 1062 83.5L1080 83L1080 101L1062 101C1044 101 1008 101 972 101C936 101 900 101 864 101C828 101 792 101 756 101C720 101 684 101 648 101C612 101 576 101 540 101C504 101 468 101 432 101C396 101 360 101 324 101C288 101 252 101 216 101C180 101 144 101 108 101C72 101 36 101 18 101L0 101Z" fill="#f3d2a9"></path><path d="M0 93L18 93C36 93 72 93 108 91.5C144 90 180 87 216 86.5C252 86 288 88 324 89.2C360 90.3 396 90.7 432 90.5C468 90.3 504 89.7 540 88.5C576 87.3 612 85.7 648 84.7C684 83.7 720 83.3 756 83.3C792 83.3 828 83.7 864 83.7C900 83.7 936 83.3 972 83.2C1008 83 1044 83 1062 83L1080 83L1080 101L1062 101C1044 101 1008 101 972 101C936 101 900 101 864 101C828 101 792 101 756 101C720 101 684 101 648 101C612 101 576 101 540 101C504 101 468 101 432 101C396 101 360 101 324 101C288 101 252 101 216 101C180 101 144 101 108 101C72 101 36 101 18 101L0 101Z" fill="#fffffe"></path></svg>