<svg id="visual" viewBox="0 0 1080 100" width="1080" height="100" xmlns="http://www.w3.org/2000/svg" xmlns:xlink="http://www.w3.org/1999/xlink" version="1.1"><path d="M0 29L18 31.7C36 34.3 72 39.7 108 41.5C144 43.3 180 41.7 216 37.7C252 33.7 288 27.3 324 26.2C360 25 396 29 432 31.8C468 34.7 504 36.3 540 34.5C576 32.7 612 27.3 648 24.5C684 21.7 720 21.3 756 21.2C792 21 828 21 864 22.2C900 23.3 936 25.7 972 26.7C1008 27.7 1044 27.3 1062 27.2L1080 27L1080 101L1062 101C1044 101 1008 101 972 101C936 101 900 101 864 101C828 101 792 101 756 101C720 101 684 101 648 101C612 101 576 101 540 101C504 101 468 101 432 101C396 101 360 101 324 101C288 101 252 101 216 101C180 101 144 101 108 101C72 101 36 101 18 101L0 101Z" fill="#232946"></path><path d="M0 31L18 31.3C36 31.7 72 32.3 108 33.7C144 35 180 37 216 40C252 43 288 47 324 47.2C360 47.3 396 43.7 432 39.3C468 35 504 30 540 28.3C576 26.7 612 28.3 648 32.5C684 36.7 720 43.3 756 45.3C792 47.3 828 44.7 864 43.8C900 43 936 44 972 43.3C1008 42.7 1044 40.3 1062 39.2L1080 38L1080 101L1062 101C1044 101 1008 101 972 101C936 101 900 101 864 101C828 101 792 101 756 101C720 101 684 101 648 101C612 101 576 101 540 101C504 101 468 101 432 101C396 101 360 101 324 101C288 101 252 101 216 101C180 101 144 101 108 101C72 101 36 101 18 101L0 101Z" fill="#53747e"></path><path d="M0 40L18 42.7C36 45.3 72 50.7 108 51.8C144 53 180 50 216 49.8C252 49.7 288 52.3 324 50.8C360 49.3 396 43.7 432 41.3C468 39 504 40 540 40.3C576 40.7 612 40.3 648 40.2C684 40 720 40 756 41C792 42 828 44 864 43.2C900 42.3 936 38.7 972 40.2C1008 41.7 1044 48.3 1062 51.7L1080 55L1080 101L1062 101C1044 101 1008 101 972 101C936 101 900 101 864 101C828 101 792 101 756 101C720 101 684 101 648 101C612 101 576 101 540 101C504 101 468 101 432 101C396 101 360 101 324 101C288 101 252 101 216 101C180 101 144 101 108 101C72 101 36 101 18 101L0 101Z" fill="#b2bfb9"></path><path d="M0 46L18 48.2C36 50.3 72 54.7 108 54.7C144 54.7 180 50.3 216 51.2C252 52 288 58 324 59C360 60 396 56 432 53.7C468 51.3 504 50.7 540 52.7C576 54.7 612 59.3 648 59.7C684 60 720 56 756 56C792 56 828 60 864 59.3C900 58.7 936 53.3 972 51.5C1008 49.7 1044 51.3 1062 52.2L1080 53L1080 101L1062 101C1044 101 1008 101 972 101C936 101 900 101 864 101C828 101 792 101 756 101C720 101 684 101 648 101C612 101 576 101 540 101C504 101 468 101 432 101C396 101 360 101 324 101C288 101 252 101 216 101C180 101 144 101 108 101C72 101 36 101 18 101L0 101Z" fill="#fffffe"></path><path d="M0 56L18 56.7C36 57.3 72 58.7 108 58.5C144 58.3 180 56.7 216 56.7C252 56.7 288 58.3 324 59.5C360 60.7 396 61.3 432 63C468 64.7 504 67.3 540 66.8C576 66.3 612 62.7 648 62.2C684 61.7 720 64.3 756 65.8C792 67.3 828 67.7 864 68C900 68.3 936 68.7 972 66.3C1008 64 1044 59 1062 56.5L1080 54L1080 101L1062 101C1044 101 1008 101 972 101C936 101 900 101 864 101C828 101 792 101 756 101C720 101 684 101 648 101C612 101 576 101 540 101C504 101 468 101 432 101C396 101 360 101 324 101C288 101 252 101 216 101C180 101 144 101 108 101C72 101 36 101 18 101L0 101Z" fill="#fffffe"></path><path d="M0 70L18 70.7C36 71.3 72 72.7 108 74.2C144 75.7 180 77.3 216 78C252 78.7 288 78.3 324 77C360 75.7 396 73.3 432 72.2C468 71 504 71 540 70.3C576 69.7 612 68.3 648 69.3C684 70.3 720 73.7 756 74C792 74.3 828 71.7 864 70.3C900 69 936 69 972 68.7C1008 68.3 1044 67.7 1062 67.3L1080 67L1080 101L1062 101C1044 101 1008 101 972 101C936 101 900 101 864 101C828 101 792 101 756 101C720 101 684 101 648 101C612 101 576 101 540 101C504 101 468 101 432 101C396 101 360 101 324 101C288 101 252 101 216 101C180 101 144 101 108 101C72 101 36 101 18 101L0 101Z" fill="#b2bfb9"></path><path d="M0 75L18 76C36 77 72 79 108 80.8C144 82.7 180 84.3 216 84C252 83.7 288 81.3 324 79.3C360 77.3 396 75.7 432 75.3C468 75 504 76 540 77.8C576 79.7 612 82.3 648 81.8C684 81.3 720 77.7 756 77.2C792 76.7 828 79.3 864 79.3C900 79.3 936 76.7 972 76.5C1008 76.3 1044 78.7 1062 79.8L1080 81L1080 101L1062 101C1044 101 1008 101 972 101C936 101 900 101 864 101C828 101 792 101 756 101C720 101 684 101 648 101C612 101 576 101 540 101C504 101 468 101 432 101C396 101 360 101 324 101C288 101 252 101 216 101C180 101 144 101 108 101C72 101 36 101 18 101L0 101Z" fill="#53747e"></path><path d="M0 83L18 83.3C36 83.7 72 84.3 108 85.8C144 87.3 180 89.7 216 89.3C252 89 288 86 324 86C360 86 396 89 432 89.5C468 90 504 88 540 88C576 88 612 90 648 90.5C684 91 720 90 756 89.2C792 88.3 828 87.7 864 88.3C900 89 936 91 972 90.7C1008 90.3 1044 87.7 1062 86.3L1080 85L1080 101L1062 101C1044 101 1008 101 972 101C936 101 900 101 864 101C828 101 792 101 756 101C720 101 684 101 648 101C612 101 576 101 540 101C504 101 468 101 432 101C396 101 360 101 324 101C288 101 252 101 216 101C180 101 144 101 108 101C72 101 36 101 18 101L0 101Z" fill="#232946"></path></svg>