<svg id="visual" viewBox="0 0 1080 100" width="1080" height="100" xmlns="http://www.w3.org/2000/svg" xmlns:xlink="http://www.w3.org/1999/xlink" version="1.1"><path d="M0 23L18 23.7C36 24.3 72 25.7 108 27C144 28.3 180 29.7 216 30.7C252 31.7 288 32.3 324 34C360 35.7 396 38.3 432 36.8C468 35.3 504 29.7 540 25.3C576 21 612 18 648 17.3C684 16.7 720 18.3 756 22.8C792 27.3 828 34.7 864 38.8C900 43 936 44 972 40.7C1008 37.3 1044 29.7 1062 25.8L1080 22L1080 101L1062 101C1044 101 1008 101 972 101C936 101 900 101 864 101C828 101 792 101 756 101C720 101 684 101 648 101C612 101 576 101 540 101C504 101 468 101 432 101C396 101 360 101 324 101C288 101 252 101 216 101C180 101 144 101 108 101C72 101 36 101 18 101L0 101Z" fill="#fffffe"></path><path d="M0 51L18 49.2C36 47.3 72 43.7 108 39.8C144 36 180 32 216 31.3C252 30.7 288 33.3 324 37C360 40.7 396 45.3 432 44.2C468 43 504 36 540 36.2C576 36.3 612 43.7 648 43C684 42.3 720 33.7 756 30C792 26.3 828 27.7 864 32C900 36.3 936 43.7 972 44.8C1008 46 1044 41 1062 38.5L1080 36L1080 101L1062 101C1044 101 1008 101 972 101C936 101 900 101 864 101C828 101 792 101 756 101C720 101 684 101 648 101C612 101 576 101 540 101C504 101 468 101 432 101C396 101 360 101 324 101C288 101 252 101 216 101C180 101 144 101 108 101C72 101 36 101 18 101L0 101Z" fill="#f3d2a9"></path><path d="M0 42L18 41.2C36 40.3 72 38.7 108 41.3C144 44 180 51 216 54C252 57 288 56 324 53.8C360 51.7 396 48.3 432 45C468 41.7 504 38.3 540 39C576 39.7 612 44.3 648 48.2C684 52 720 55 756 53.2C792 51.3 828 44.7 864 44.3C900 44 936 50 972 52.7C1008 55.3 1044 54.7 1062 54.3L1080 54L1080 101L1062 101C1044 101 1008 101 972 101C936 101 900 101 864 101C828 101 792 101 756 101C720 101 684 101 648 101C612 101 576 101 540 101C504 101 468 101 432 101C396 101 360 101 324 101C288 101 252 101 216 101C180 101 144 101 108 101C72 101 36 101 18 101L0 101Z" fill="#fd9473"></path><path d="M0 57L18 58.5C36 60 72 63 108 61.2C144 59.3 180 52.7 216 49C252 45.3 288 44.7 324 45.5C360 46.3 396 48.7 432 52C468 55.3 504 59.7 540 59.8C576 60 612 56 648 56.2C684 56.3 720 60.7 756 62.7C792 64.7 828 64.3 864 61.7C900 59 936 54 972 54.2C1008 54.3 1044 59.7 1062 62.3L1080 65L1080 101L1062 101C1044 101 1008 101 972 101C936 101 900 101 864 101C828 101 792 101 756 101C720 101 684 101 648 101C612 101 576 101 540 101C504 101 468 101 432 101C396 101 360 101 324 101C288 101 252 101 216 101C180 101 144 101 108 101C72 101 36 101 18 101L0 101Z" fill="#ff5470"></path><path d="M0 67L18 66.5C36 66 72 65 108 64.7C144 64.3 180 64.7 216 64.8C252 65 288 65 324 64.5C360 64 396 63 432 61.7C468 60.3 504 58.7 540 57.5C576 56.3 612 55.7 648 56C684 56.3 720 57.7 756 59.8C792 62 828 65 864 65.5C900 66 936 64 972 61.8C1008 59.7 1044 57.3 1062 56.2L1080 55L1080 101L1062 101C1044 101 1008 101 972 101C936 101 900 101 864 101C828 101 792 101 756 101C720 101 684 101 648 101C612 101 576 101 540 101C504 101 468 101 432 101C396 101 360 101 324 101C288 101 252 101 216 101C180 101 144 101 108 101C72 101 36 101 18 101L0 101Z" fill="#ff5470"></path><path d="M0 70L18 70C36 70 72 70 108 71.2C144 72.3 180 74.7 216 76C252 77.3 288 77.7 324 76.8C360 76 396 74 432 72.3C468 70.7 504 69.3 540 68.3C576 67.3 612 66.7 648 67.2C684 67.7 720 69.3 756 69.8C792 70.3 828 69.7 864 70.7C900 71.7 936 74.3 972 75.2C1008 76 1044 75 1062 74.5L1080 74L1080 101L1062 101C1044 101 1008 101 972 101C936 101 900 101 864 101C828 101 792 101 756 101C720 101 684 101 648 101C612 101 576 101 540 101C504 101 468 101 432 101C396 101 360 101 324 101C288 101 252 101 216 101C180 101 144 101 108 101C72 101 36 101 18 101L0 101Z" fill="#fd9473"></path><path d="M0 76L18 76.3C36 76.7 72 77.3 108 77.5C144 77.7 180 77.3 216 76.5C252 75.7 288 74.3 324 75.7C360 77 396 81 432 81C468 81 504 77 540 75.3C576 73.7 612 74.3 648 76.5C684 78.7 720 82.3 756 82C792 81.7 828 77.3 864 75.8C900 74.3 936 75.7 972 77.7C1008 79.7 1044 82.3 1062 83.7L1080 85L1080 101L1062 101C1044 101 1008 101 972 101C936 101 900 101 864 101C828 101 792 101 756 101C720 101 684 101 648 101C612 101 576 101 540 101C504 101 468 101 432 101C396 101 360 101 324 101C288 101 252 101 216 101C180 101 144 101 108 101C72 101 36 101 18 101L0 101Z" fill="#f3d2a9"></path><path d="M0 85L18 86.2C36 87.3 72 89.7 108 91C144 92.3 180 92.7 216 91.7C252 90.7 288 88.3 324 88.3C360 88.3 396 90.7 432 91.7C468 92.7 504 92.3 540 92.2C576 92 612 92 648 91.3C684 90.7 720 89.3 756 88.5C792 87.7 828 87.3 864 87.3C900 87.3 936 87.7 972 87.3C1008 87 1044 86 1062 85.5L1080 85L1080 101L1062 101C1044 101 1008 101 972 101C936 101 900 101 864 101C828 101 792 101 756 101C720 101 684 101 648 101C612 101 576 101 540 101C504 101 468 101 432 101C396 101 360 101 324 101C288 101 252 101 216 101C180 101 144 101 108 101C72 101 36 101 18 101L0 101Z" fill="#fffffe"></path></svg>