<svg id="visual" viewBox="0 0 1080 100" width="1080" height="100" xmlns="http://www.w3.org/2000/svg" xmlns:xlink="http://www.w3.org/1999/xlink" version="1.1"><path d="M0 28L18 26.5C36 25 72 22 108 21.7C144 21.3 180 23.7 216 24.3C252 25 288 24 324 26C360 28 396 33 432 32.7C468 32.3 504 26.7 540 23.8C576 21 612 21 648 20C684 19 720 17 756 16.2C792 15.3 828 15.7 864 17.2C900 18.7 936 21.3 972 22.3C1008 23.3 1044 22.7 1062 22.3L1080 22L1080 101L1062 101C1044 101 1008 101 972 101C936 101 900 101 864 101C828 101 792 101 756 101C720 101 684 101 648 101C612 101 576 101 540 101C504 101 468 101 432 101C396 101 360 101 324 101C288 101 252 101 216 101C180 101 144 101 108 101C72 101 36 101 18 101L0 101Z" fill="#232946"></path><path d="M0 30L18 29.2C36 28.3 72 26.7 108 25.7C144 24.7 180 24.3 216 26.7C252 29 288 34 324 35.8C360 37.7 396 36.3 432 37.7C468 39 504 43 540 41.5C576 40 612 33 648 30.7C684 28.3 720 30.7 756 31C792 31.3 828 29.7 864 28.3C900 27 936 26 972 28.8C1008 31.7 1044 38.3 1062 41.7L1080 45L1080 101L1062 101C1044 101 1008 101 972 101C936 101 900 101 864 101C828 101 792 101 756 101C720 101 684 101 648 101C612 101 576 101 540 101C504 101 468 101 432 101C396 101 360 101 324 101C288 101 252 101 216 101C180 101 144 101 108 101C72 101 36 101 18 101L0 101Z" fill="#53747e"></path><path d="M0 51L18 49.3C36 47.7 72 44.3 108 44.5C144 44.7 180 48.3 216 48.3C252 48.3 288 44.7 324 43C360 41.3 396 41.7 432 41.7C468 41.7 504 41.3 540 40C576 38.7 612 36.3 648 36.3C684 36.3 720 38.7 756 40.2C792 41.7 828 42.3 864 44.3C900 46.3 936 49.7 972 48.7C1008 47.7 1044 42.3 1062 39.7L1080 37L1080 101L1062 101C1044 101 1008 101 972 101C936 101 900 101 864 101C828 101 792 101 756 101C720 101 684 101 648 101C612 101 576 101 540 101C504 101 468 101 432 101C396 101 360 101 324 101C288 101 252 101 216 101C180 101 144 101 108 101C72 101 36 101 18 101L0 101Z" fill="#b2bfb9"></path><path d="M0 44L18 46.5C36 49 72 54 108 54.3C144 54.7 180 50.3 216 48.3C252 46.3 288 46.7 324 48.7C360 50.7 396 54.3 432 55.2C468 56 504 54 540 53.3C576 52.7 612 53.3 648 52.3C684 51.3 720 48.7 756 50.3C792 52 828 58 864 58.8C900 59.7 936 55.3 972 55C1008 54.7 1044 58.3 1062 60.2L1080 62L1080 101L1062 101C1044 101 1008 101 972 101C936 101 900 101 864 101C828 101 792 101 756 101C720 101 684 101 648 101C612 101 576 101 540 101C504 101 468 101 432 101C396 101 360 101 324 101C288 101 252 101 216 101C180 101 144 101 108 101C72 101 36 101 18 101L0 101Z" fill="#fffffe"></path><path d="M0 67L18 65.3C36 63.7 72 60.3 108 59.5C144 58.7 180 60.3 216 61.3C252 62.3 288 62.7 324 63.3C360 64 396 65 432 64.7C468 64.3 504 62.7 540 62C576 61.3 612 61.7 648 63.3C684 65 720 68 756 69C792 70 828 69 864 67.2C900 65.3 936 62.7 972 62.5C1008 62.3 1044 64.7 1062 65.8L1080 67L1080 101L1062 101C1044 101 1008 101 972 101C936 101 900 101 864 101C828 101 792 101 756 101C720 101 684 101 648 101C612 101 576 101 540 101C504 101 468 101 432 101C396 101 360 101 324 101C288 101 252 101 216 101C180 101 144 101 108 101C72 101 36 101 18 101L0 101Z" fill="#fffffe"></path><path d="M0 70L18 69C36 68 72 66 108 66.5C144 67 180 70 216 71.2C252 72.3 288 71.7 324 70C360 68.3 396 65.7 432 66.7C468 67.7 504 72.3 540 75.2C576 78 612 79 648 78C684 77 720 74 756 71.8C792 69.7 828 68.3 864 67.3C900 66.3 936 65.7 972 65.8C1008 66 1044 67 1062 67.5L1080 68L1080 101L1062 101C1044 101 1008 101 972 101C936 101 900 101 864 101C828 101 792 101 756 101C720 101 684 101 648 101C612 101 576 101 540 101C504 101 468 101 432 101C396 101 360 101 324 101C288 101 252 101 216 101C180 101 144 101 108 101C72 101 36 101 18 101L0 101Z" fill="#b2bfb9"></path><path d="M0 76L18 76.3C36 76.7 72 77.3 108 77.5C144 77.7 180 77.3 216 76.8C252 76.3 288 75.7 324 75.7C360 75.7 396 76.3 432 76.5C468 76.7 504 76.3 540 75.8C576 75.3 612 74.7 648 75.2C684 75.7 720 77.3 756 77.7C792 78 828 77 864 76.8C900 76.7 936 77.3 972 78C1008 78.7 1044 79.3 1062 79.7L1080 80L1080 101L1062 101C1044 101 1008 101 972 101C936 101 900 101 864 101C828 101 792 101 756 101C720 101 684 101 648 101C612 101 576 101 540 101C504 101 468 101 432 101C396 101 360 101 324 101C288 101 252 101 216 101C180 101 144 101 108 101C72 101 36 101 18 101L0 101Z" fill="#53747e"></path><path d="M0 90L18 89.2C36 88.3 72 86.7 108 85.5C144 84.3 180 83.7 216 84.3C252 85 288 87 324 87.5C360 88 396 87 432 87.2C468 87.3 504 88.7 540 89C576 89.3 612 88.7 648 87.8C684 87 720 86 756 86.5C792 87 828 89 864 88.8C900 88.7 936 86.3 972 85.8C1008 85.3 1044 86.7 1062 87.3L1080 88L1080 101L1062 101C1044 101 1008 101 972 101C936 101 900 101 864 101C828 101 792 101 756 101C720 101 684 101 648 101C612 101 576 101 540 101C504 101 468 101 432 101C396 101 360 101 324 101C288 101 252 101 216 101C180 101 144 101 108 101C72 101 36 101 18 101L0 101Z" fill="#232946"></path></svg>