<svg id="visual" viewBox="0 0 1080 100" width="1080" height="100" xmlns="http://www.w3.org/2000/svg" xmlns:xlink="http://www.w3.org/1999/xlink" version="1.1"><path d="M0 17L18 17.8C36 18.7 72 20.3 108 24C144 27.7 180 33.3 216 35.5C252 37.7 288 36.3 324 36.3C360 36.3 396 37.7 432 36.5C468 35.3 504 31.7 540 29.5C576 27.3 612 26.7 648 28.8C684 31 720 36 756 36.5C792 37 828 33 864 32.8C900 32.7 936 36.3 972 38.8C1008 41.3 1044 42.7 1062 43.3L1080 44L1080 101L1062 101C1044 101 1008 101 972 101C936 101 900 101 864 101C828 101 792 101 756 101C720 101 684 101 648 101C612 101 576 101 540 101C504 101 468 101 432 101C396 101 360 101 324 101C288 101 252 101 216 101C180 101 144 101 108 101C72 101 36 101 18 101L0 101Z" fill="#232946"></path><path d="M0 38L18 40C36 42 72 46 108 44.2C144 42.3 180 34.7 216 30.5C252 26.3 288 25.7 324 27.5C360 29.3 396 33.7 432 35.3C468 37 504 36 540 34.3C576 32.7 612 30.3 648 31.7C684 33 720 38 756 39.8C792 41.7 828 40.3 864 39.8C900 39.3 936 39.7 972 38.3C1008 37 1044 34 1062 32.5L1080 31L1080 101L1062 101C1044 101 1008 101 972 101C936 101 900 101 864 101C828 101 792 101 756 101C720 101 684 101 648 101C612 101 576 101 540 101C504 101 468 101 432 101C396 101 360 101 324 101C288 101 252 101 216 101C180 101 144 101 108 101C72 101 36 101 18 101L0 101Z" fill="#53747e"></path><path d="M0 42L18 43.3C36 44.7 72 47.3 108 46.5C144 45.7 180 41.3 216 40.3C252 39.3 288 41.7 324 43C360 44.3 396 44.7 432 47.2C468 49.7 504 54.3 540 54.7C576 55 612 51 648 48.7C684 46.3 720 45.7 756 47.2C792 48.7 828 52.3 864 54C900 55.7 936 55.3 972 52.7C1008 50 1044 45 1062 42.5L1080 40L1080 101L1062 101C1044 101 1008 101 972 101C936 101 900 101 864 101C828 101 792 101 756 101C720 101 684 101 648 101C612 101 576 101 540 101C504 101 468 101 432 101C396 101 360 101 324 101C288 101 252 101 216 101C180 101 144 101 108 101C72 101 36 101 18 101L0 101Z" fill="#b2bfb9"></path><path d="M0 64L18 61.7C36 59.3 72 54.7 108 54C144 53.3 180 56.7 216 56.2C252 55.7 288 51.3 324 51.2C360 51 396 55 432 57.8C468 60.7 504 62.3 540 63.2C576 64 612 64 648 61C684 58 720 52 756 50.2C792 48.3 828 50.7 864 51.5C900 52.3 936 51.7 972 51.3C1008 51 1044 51 1062 51L1080 51L1080 101L1062 101C1044 101 1008 101 972 101C936 101 900 101 864 101C828 101 792 101 756 101C720 101 684 101 648 101C612 101 576 101 540 101C504 101 468 101 432 101C396 101 360 101 324 101C288 101 252 101 216 101C180 101 144 101 108 101C72 101 36 101 18 101L0 101Z" fill="#fffffe"></path><path d="M0 67L18 65C36 63 72 59 108 58.7C144 58.3 180 61.7 216 63C252 64.3 288 63.7 324 62.5C360 61.3 396 59.7 432 59.3C468 59 504 60 540 61C576 62 612 63 648 63.7C684 64.3 720 64.7 756 63.3C792 62 828 59 864 59C900 59 936 62 972 63.3C1008 64.7 1044 64.3 1062 64.2L1080 64L1080 101L1062 101C1044 101 1008 101 972 101C936 101 900 101 864 101C828 101 792 101 756 101C720 101 684 101 648 101C612 101 576 101 540 101C504 101 468 101 432 101C396 101 360 101 324 101C288 101 252 101 216 101C180 101 144 101 108 101C72 101 36 101 18 101L0 101Z" fill="#fffffe"></path><path d="M0 76L18 74.5C36 73 72 70 108 67.8C144 65.7 180 64.3 216 66.3C252 68.3 288 73.7 324 74.8C360 76 396 73 432 73C468 73 504 76 540 77.5C576 79 612 79 648 77C684 75 720 71 756 69.7C792 68.3 828 69.7 864 70.7C900 71.7 936 72.3 972 72C1008 71.7 1044 70.3 1062 69.7L1080 69L1080 101L1062 101C1044 101 1008 101 972 101C936 101 900 101 864 101C828 101 792 101 756 101C720 101 684 101 648 101C612 101 576 101 540 101C504 101 468 101 432 101C396 101 360 101 324 101C288 101 252 101 216 101C180 101 144 101 108 101C72 101 36 101 18 101L0 101Z" fill="#b2bfb9"></path><path d="M0 77L18 76.7C36 76.3 72 75.7 108 75.3C144 75 180 75 216 74.7C252 74.3 288 73.7 324 74.2C360 74.7 396 76.3 432 77.8C468 79.3 504 80.7 540 80.2C576 79.7 612 77.3 648 76.5C684 75.7 720 76.3 756 76.8C792 77.3 828 77.7 864 77.2C900 76.7 936 75.3 972 76.3C1008 77.3 1044 80.7 1062 82.3L1080 84L1080 101L1062 101C1044 101 1008 101 972 101C936 101 900 101 864 101C828 101 792 101 756 101C720 101 684 101 648 101C612 101 576 101 540 101C504 101 468 101 432 101C396 101 360 101 324 101C288 101 252 101 216 101C180 101 144 101 108 101C72 101 36 101 18 101L0 101Z" fill="#53747e"></path><path d="M0 89L18 88C36 87 72 85 108 84.2C144 83.3 180 83.7 216 84.8C252 86 288 88 324 88C360 88 396 86 432 86.5C468 87 504 90 540 91.5C576 93 612 93 648 92.5C684 92 720 91 756 91C792 91 828 92 864 91.8C900 91.7 936 90.3 972 89.3C1008 88.3 1044 87.7 1062 87.3L1080 87L1080 101L1062 101C1044 101 1008 101 972 101C936 101 900 101 864 101C828 101 792 101 756 101C720 101 684 101 648 101C612 101 576 101 540 101C504 101 468 101 432 101C396 101 360 101 324 101C288 101 252 101 216 101C180 101 144 101 108 101C72 101 36 101 18 101L0 101Z" fill="#232946"></path></svg>