<svg id="visual" viewBox="0 0 1080 100" width="1080" height="100" xmlns="http://www.w3.org/2000/svg" xmlns:xlink="http://www.w3.org/1999/xlink" version="1.1"><path d="M0 41L18 39.3C36 37.7 72 34.3 108 34.5C144 34.7 180 38.3 216 35.8C252 33.3 288 24.7 324 25C360 25.3 396 34.7 432 38.2C468 41.7 504 39.3 540 38.5C576 37.7 612 38.3 648 36.5C684 34.7 720 30.3 756 30.8C792 31.3 828 36.7 864 38C900 39.3 936 36.7 972 34C1008 31.3 1044 28.7 1062 27.3L1080 26L1080 101L1062 101C1044 101 1008 101 972 101C936 101 900 101 864 101C828 101 792 101 756 101C720 101 684 101 648 101C612 101 576 101 540 101C504 101 468 101 432 101C396 101 360 101 324 101C288 101 252 101 216 101C180 101 144 101 108 101C72 101 36 101 18 101L0 101Z" fill="#fffffe"></path><path d="M0 44L18 44.5C36 45 72 46 108 46C144 46 180 45 216 41.2C252 37.3 288 30.7 324 28.8C360 27 396 30 432 30.5C468 31 504 29 540 28.3C576 27.7 612 28.3 648 28.5C684 28.7 720 28.3 756 29.5C792 30.7 828 33.3 864 33.2C900 33 936 30 972 28.3C1008 26.7 1044 26.3 1062 26.2L1080 26L1080 101L1062 101C1044 101 1008 101 972 101C936 101 900 101 864 101C828 101 792 101 756 101C720 101 684 101 648 101C612 101 576 101 540 101C504 101 468 101 432 101C396 101 360 101 324 101C288 101 252 101 216 101C180 101 144 101 108 101C72 101 36 101 18 101L0 101Z" fill="#f3d2a9"></path><path d="M0 41L18 40.3C36 39.7 72 38.3 108 39C144 39.7 180 42.3 216 43.5C252 44.7 288 44.3 324 43.7C360 43 396 42 432 41.7C468 41.3 504 41.7 540 41C576 40.3 612 38.7 648 41C684 43.3 720 49.7 756 49.2C792 48.7 828 41.3 864 40.7C900 40 936 46 972 49.7C1008 53.3 1044 54.7 1062 55.3L1080 56L1080 101L1062 101C1044 101 1008 101 972 101C936 101 900 101 864 101C828 101 792 101 756 101C720 101 684 101 648 101C612 101 576 101 540 101C504 101 468 101 432 101C396 101 360 101 324 101C288 101 252 101 216 101C180 101 144 101 108 101C72 101 36 101 18 101L0 101Z" fill="#fd9473"></path><path d="M0 63L18 61.5C36 60 72 57 108 57.2C144 57.3 180 60.7 216 61.3C252 62 288 60 324 60C360 60 396 62 432 61.2C468 60.3 504 56.7 540 53.7C576 50.7 612 48.3 648 49C684 49.7 720 53.3 756 55.2C792 57 828 57 864 57.7C900 58.3 936 59.7 972 60.2C1008 60.7 1044 60.3 1062 60.2L1080 60L1080 101L1062 101C1044 101 1008 101 972 101C936 101 900 101 864 101C828 101 792 101 756 101C720 101 684 101 648 101C612 101 576 101 540 101C504 101 468 101 432 101C396 101 360 101 324 101C288 101 252 101 216 101C180 101 144 101 108 101C72 101 36 101 18 101L0 101Z" fill="#ff5470"></path><path d="M0 57L18 58.7C36 60.3 72 63.7 108 64.2C144 64.7 180 62.3 216 60.5C252 58.7 288 57.3 324 57.7C360 58 396 60 432 61.8C468 63.7 504 65.3 540 65.5C576 65.7 612 64.3 648 64.2C684 64 720 65 756 64.5C792 64 828 62 864 61.3C900 60.7 936 61.3 972 60.7C1008 60 1044 58 1062 57L1080 56L1080 101L1062 101C1044 101 1008 101 972 101C936 101 900 101 864 101C828 101 792 101 756 101C720 101 684 101 648 101C612 101 576 101 540 101C504 101 468 101 432 101C396 101 360 101 324 101C288 101 252 101 216 101C180 101 144 101 108 101C72 101 36 101 18 101L0 101Z" fill="#ff5470"></path><path d="M0 69L18 68C36 67 72 65 108 66.2C144 67.3 180 71.7 216 73.3C252 75 288 74 324 73.5C360 73 396 73 432 73C468 73 504 73 540 74C576 75 612 77 648 77C684 77 720 75 756 74.5C792 74 828 75 864 74.3C900 73.7 936 71.3 972 70C1008 68.7 1044 68.3 1062 68.2L1080 68L1080 101L1062 101C1044 101 1008 101 972 101C936 101 900 101 864 101C828 101 792 101 756 101C720 101 684 101 648 101C612 101 576 101 540 101C504 101 468 101 432 101C396 101 360 101 324 101C288 101 252 101 216 101C180 101 144 101 108 101C72 101 36 101 18 101L0 101Z" fill="#fd9473"></path><path d="M0 84L18 83.8C36 83.7 72 83.3 108 82.2C144 81 180 79 216 77.7C252 76.3 288 75.7 324 75.8C360 76 396 77 432 78.7C468 80.3 504 82.7 540 84C576 85.3 612 85.7 648 84.8C684 84 720 82 756 81C792 80 828 80 864 80.8C900 81.7 936 83.3 972 83C1008 82.7 1044 80.3 1062 79.2L1080 78L1080 101L1062 101C1044 101 1008 101 972 101C936 101 900 101 864 101C828 101 792 101 756 101C720 101 684 101 648 101C612 101 576 101 540 101C504 101 468 101 432 101C396 101 360 101 324 101C288 101 252 101 216 101C180 101 144 101 108 101C72 101 36 101 18 101L0 101Z" fill="#f3d2a9"></path><path d="M0 90L18 90.2C36 90.3 72 90.7 108 90.7C144 90.7 180 90.3 216 89.7C252 89 288 88 324 87C360 86 396 85 432 85C468 85 504 86 540 85.8C576 85.7 612 84.3 648 85.3C684 86.3 720 89.7 756 91C792 92.3 828 91.7 864 90.5C900 89.3 936 87.7 972 87C1008 86.3 1044 86.7 1062 86.8L1080 87L1080 101L1062 101C1044 101 1008 101 972 101C936 101 900 101 864 101C828 101 792 101 756 101C720 101 684 101 648 101C612 101 576 101 540 101C504 101 468 101 432 101C396 101 360 101 324 101C288 101 252 101 216 101C180 101 144 101 108 101C72 101 36 101 18 101L0 101Z" fill="#fffffe"></path></svg>