<svg id="visual" viewBox="0 0 1080 100" width="1080" height="100" xmlns="http://www.w3.org/2000/svg" xmlns:xlink="http://www.w3.org/1999/xlink" version="1.1"><path d="M0 41L18 36.7C36 32.3 72 23.7 108 24.2C144 24.7 180 34.3 216 39C252 43.7 288 43.3 324 39.8C360 36.3 396 29.7 432 26.2C468 22.7 504 22.3 540 20.8C576 19.3 612 16.7 648 19.8C684 23 720 32 756 32.3C792 32.7 828 24.3 864 24.7C900 25 936 34 972 36.5C1008 39 1044 35 1062 33L1080 31L1080 101L1062 101C1044 101 1008 101 972 101C936 101 900 101 864 101C828 101 792 101 756 101C720 101 684 101 648 101C612 101 576 101 540 101C504 101 468 101 432 101C396 101 360 101 324 101C288 101 252 101 216 101C180 101 144 101 108 101C72 101 36 101 18 101L0 101Z" fill="#232946"></path><path d="M0 31L18 34C36 37 72 43 108 46C144 49 180 49 216 47.3C252 45.7 288 42.3 324 40C360 37.7 396 36.3 432 35.5C468 34.7 504 34.3 540 36.8C576 39.3 612 44.7 648 46.2C684 47.7 720 45.3 756 43C792 40.7 828 38.3 864 36.3C900 34.3 936 32.7 972 33.2C1008 33.7 1044 36.3 1062 37.7L1080 39L1080 101L1062 101C1044 101 1008 101 972 101C936 101 900 101 864 101C828 101 792 101 756 101C720 101 684 101 648 101C612 101 576 101 540 101C504 101 468 101 432 101C396 101 360 101 324 101C288 101 252 101 216 101C180 101 144 101 108 101C72 101 36 101 18 101L0 101Z" fill="#53747e"></path><path d="M0 57L18 53.7C36 50.3 72 43.7 108 42.2C144 40.7 180 44.3 216 46.3C252 48.3 288 48.7 324 47.3C360 46 396 43 432 40.5C468 38 504 36 540 38.7C576 41.3 612 48.7 648 50.8C684 53 720 50 756 49.8C792 49.7 828 52.3 864 51.7C900 51 936 47 972 46.8C1008 46.7 1044 50.3 1062 52.2L1080 54L1080 101L1062 101C1044 101 1008 101 972 101C936 101 900 101 864 101C828 101 792 101 756 101C720 101 684 101 648 101C612 101 576 101 540 101C504 101 468 101 432 101C396 101 360 101 324 101C288 101 252 101 216 101C180 101 144 101 108 101C72 101 36 101 18 101L0 101Z" fill="#b2bfb9"></path><path d="M0 62L18 60.5C36 59 72 56 108 54.5C144 53 180 53 216 53.8C252 54.7 288 56.3 324 57.3C360 58.3 396 58.7 432 56.5C468 54.3 504 49.7 540 49.2C576 48.7 612 52.3 648 53.3C684 54.3 720 52.7 756 52.3C792 52 828 53 864 55.2C900 57.3 936 60.7 972 59.7C1008 58.7 1044 53.3 1062 50.7L1080 48L1080 101L1062 101C1044 101 1008 101 972 101C936 101 900 101 864 101C828 101 792 101 756 101C720 101 684 101 648 101C612 101 576 101 540 101C504 101 468 101 432 101C396 101 360 101 324 101C288 101 252 101 216 101C180 101 144 101 108 101C72 101 36 101 18 101L0 101Z" fill="#fffffe"></path><path d="M0 72L18 70C36 68 72 64 108 63.7C144 63.3 180 66.7 216 66.7C252 66.7 288 63.3 324 61C360 58.7 396 57.3 432 58C468 58.7 504 61.3 540 63.3C576 65.3 612 66.7 648 67.5C684 68.3 720 68.7 756 67.5C792 66.3 828 63.7 864 63.7C900 63.7 936 66.3 972 66.8C1008 67.3 1044 65.7 1062 64.8L1080 64L1080 101L1062 101C1044 101 1008 101 972 101C936 101 900 101 864 101C828 101 792 101 756 101C720 101 684 101 648 101C612 101 576 101 540 101C504 101 468 101 432 101C396 101 360 101 324 101C288 101 252 101 216 101C180 101 144 101 108 101C72 101 36 101 18 101L0 101Z" fill="#fffffe"></path><path d="M0 69L18 68C36 67 72 65 108 66C144 67 180 71 216 71C252 71 288 67 324 65.7C360 64.3 396 65.7 432 67.7C468 69.7 504 72.3 540 72.3C576 72.3 612 69.7 648 69.3C684 69 720 71 756 72C792 73 828 73 864 73.7C900 74.3 936 75.7 972 76.5C1008 77.3 1044 77.7 1062 77.8L1080 78L1080 101L1062 101C1044 101 1008 101 972 101C936 101 900 101 864 101C828 101 792 101 756 101C720 101 684 101 648 101C612 101 576 101 540 101C504 101 468 101 432 101C396 101 360 101 324 101C288 101 252 101 216 101C180 101 144 101 108 101C72 101 36 101 18 101L0 101Z" fill="#b2bfb9"></path><path d="M0 75L18 75C36 75 72 75 108 74.7C144 74.3 180 73.7 216 73.5C252 73.3 288 73.7 324 75.3C360 77 396 80 432 81.8C468 83.7 504 84.3 540 84.7C576 85 612 85 648 84.5C684 84 720 83 756 81.8C792 80.7 828 79.3 864 79.5C900 79.7 936 81.3 972 82C1008 82.7 1044 82.3 1062 82.2L1080 82L1080 101L1062 101C1044 101 1008 101 972 101C936 101 900 101 864 101C828 101 792 101 756 101C720 101 684 101 648 101C612 101 576 101 540 101C504 101 468 101 432 101C396 101 360 101 324 101C288 101 252 101 216 101C180 101 144 101 108 101C72 101 36 101 18 101L0 101Z" fill="#53747e"></path><path d="M0 87L18 86.3C36 85.7 72 84.3 108 84.7C144 85 180 87 216 87.2C252 87.3 288 85.7 324 86C360 86.3 396 88.7 432 90.2C468 91.7 504 92.3 540 91.2C576 90 612 87 648 85.8C684 84.7 720 85.3 756 86.5C792 87.7 828 89.3 864 90.5C900 91.7 936 92.3 972 91.3C1008 90.3 1044 87.7 1062 86.3L1080 85L1080 101L1062 101C1044 101 1008 101 972 101C936 101 900 101 864 101C828 101 792 101 756 101C720 101 684 101 648 101C612 101 576 101 540 101C504 101 468 101 432 101C396 101 360 101 324 101C288 101 252 101 216 101C180 101 144 101 108 101C72 101 36 101 18 101L0 101Z" fill="#232946"></path></svg>