<svg id="visual" viewBox="0 0 1080 100" width="1080" height="100" xmlns="http://www.w3.org/2000/svg" xmlns:xlink="http://www.w3.org/1999/xlink" version="1.1"><path d="M0 34L18 35C36 36 72 38 108 36.7C144 35.3 180 30.7 216 28.2C252 25.7 288 25.3 324 27.3C360 29.3 396 33.7 432 32.2C468 30.7 504 23.3 540 22.8C576 22.3 612 28.7 648 32.2C684 35.7 720 36.3 756 34.3C792 32.3 828 27.7 864 27C900 26.3 936 29.7 972 29.7C1008 29.7 1044 26.3 1062 24.7L1080 23L1080 101L1062 101C1044 101 1008 101 972 101C936 101 900 101 864 101C828 101 792 101 756 101C720 101 684 101 648 101C612 101 576 101 540 101C504 101 468 101 432 101C396 101 360 101 324 101C288 101 252 101 216 101C180 101 144 101 108 101C72 101 36 101 18 101L0 101Z" fill="#fffffe"></path><path d="M0 41L18 38.8C36 36.7 72 32.3 108 29.5C144 26.7 180 25.3 216 27.3C252 29.3 288 34.7 324 36.2C360 37.7 396 35.3 432 37.2C468 39 504 45 540 46.3C576 47.7 612 44.3 648 41.7C684 39 720 37 756 37.5C792 38 828 41 864 41.3C900 41.7 936 39.3 972 36.2C1008 33 1044 29 1062 27L1080 25L1080 101L1062 101C1044 101 1008 101 972 101C936 101 900 101 864 101C828 101 792 101 756 101C720 101 684 101 648 101C612 101 576 101 540 101C504 101 468 101 432 101C396 101 360 101 324 101C288 101 252 101 216 101C180 101 144 101 108 101C72 101 36 101 18 101L0 101Z" fill="#f3d2a9"></path><path d="M0 45L18 47.2C36 49.3 72 53.7 108 54C144 54.3 180 50.7 216 48C252 45.3 288 43.7 324 44.8C360 46 396 50 432 51C468 52 504 50 540 46.8C576 43.7 612 39.3 648 38.8C684 38.3 720 41.7 756 42.2C792 42.7 828 40.3 864 40.7C900 41 936 44 972 43.5C1008 43 1044 39 1062 37L1080 35L1080 101L1062 101C1044 101 1008 101 972 101C936 101 900 101 864 101C828 101 792 101 756 101C720 101 684 101 648 101C612 101 576 101 540 101C504 101 468 101 432 101C396 101 360 101 324 101C288 101 252 101 216 101C180 101 144 101 108 101C72 101 36 101 18 101L0 101Z" fill="#fd9473"></path><path d="M0 62L18 60.5C36 59 72 56 108 56C144 56 180 59 216 59.8C252 60.7 288 59.3 324 57.5C360 55.7 396 53.3 432 54C468 54.7 504 58.3 540 60.7C576 63 612 64 648 63.3C684 62.7 720 60.3 756 59C792 57.7 828 57.3 864 57.5C900 57.7 936 58.3 972 58.5C1008 58.7 1044 58.3 1062 58.2L1080 58L1080 101L1062 101C1044 101 1008 101 972 101C936 101 900 101 864 101C828 101 792 101 756 101C720 101 684 101 648 101C612 101 576 101 540 101C504 101 468 101 432 101C396 101 360 101 324 101C288 101 252 101 216 101C180 101 144 101 108 101C72 101 36 101 18 101L0 101Z" fill="#ff5470"></path><path d="M0 61L18 61.7C36 62.3 72 63.7 108 64C144 64.3 180 63.7 216 63.3C252 63 288 63 324 62C360 61 396 59 432 59.2C468 59.3 504 61.7 540 61.8C576 62 612 60 648 61.2C684 62.3 720 66.7 756 67.3C792 68 828 65 864 62.5C900 60 936 58 972 58.8C1008 59.7 1044 63.3 1062 65.2L1080 67L1080 101L1062 101C1044 101 1008 101 972 101C936 101 900 101 864 101C828 101 792 101 756 101C720 101 684 101 648 101C612 101 576 101 540 101C504 101 468 101 432 101C396 101 360 101 324 101C288 101 252 101 216 101C180 101 144 101 108 101C72 101 36 101 18 101L0 101Z" fill="#ff5470"></path><path d="M0 74L18 73.5C36 73 72 72 108 72.5C144 73 180 75 216 74.7C252 74.3 288 71.7 324 71.2C360 70.7 396 72.3 432 71.8C468 71.3 504 68.7 540 68.7C576 68.7 612 71.3 648 72C684 72.7 720 71.3 756 69.5C792 67.7 828 65.3 864 65C900 64.7 936 66.3 972 69C1008 71.7 1044 75.3 1062 77.2L1080 79L1080 101L1062 101C1044 101 1008 101 972 101C936 101 900 101 864 101C828 101 792 101 756 101C720 101 684 101 648 101C612 101 576 101 540 101C504 101 468 101 432 101C396 101 360 101 324 101C288 101 252 101 216 101C180 101 144 101 108 101C72 101 36 101 18 101L0 101Z" fill="#fd9473"></path><path d="M0 77L18 77.2C36 77.3 72 77.7 108 78.3C144 79 180 80 216 80.7C252 81.3 288 81.7 324 81.2C360 80.7 396 79.3 432 79.8C468 80.3 504 82.7 540 83.5C576 84.3 612 83.7 648 83.3C684 83 720 83 756 81.5C792 80 828 77 864 77.2C900 77.3 936 80.7 972 80.8C1008 81 1044 78 1062 76.5L1080 75L1080 101L1062 101C1044 101 1008 101 972 101C936 101 900 101 864 101C828 101 792 101 756 101C720 101 684 101 648 101C612 101 576 101 540 101C504 101 468 101 432 101C396 101 360 101 324 101C288 101 252 101 216 101C180 101 144 101 108 101C72 101 36 101 18 101L0 101Z" fill="#f3d2a9"></path><path d="M0 84L18 85.2C36 86.3 72 88.7 108 88.8C144 89 180 87 216 86.8C252 86.7 288 88.3 324 88C360 87.7 396 85.3 432 84.7C468 84 504 85 540 85.8C576 86.7 612 87.3 648 87.3C684 87.3 720 86.7 756 86.5C792 86.3 828 86.7 864 87.5C900 88.3 936 89.7 972 89.5C1008 89.3 1044 87.7 1062 86.8L1080 86L1080 101L1062 101C1044 101 1008 101 972 101C936 101 900 101 864 101C828 101 792 101 756 101C720 101 684 101 648 101C612 101 576 101 540 101C504 101 468 101 432 101C396 101 360 101 324 101C288 101 252 101 216 101C180 101 144 101 108 101C72 101 36 101 18 101L0 101Z" fill="#fffffe"></path></svg>