<?xml version="1.0" encoding="UTF-8" standalone="no"?>
<svg
   width="238.125mm"
   height="169.69295mm"
   viewBox="0 0 238.125 169.69295"
   version="1.1"
   id="svg1"
   xml:space="preserve"
   xmlns="http://www.w3.org/2000/svg"
   xmlns:svg="http://www.w3.org/2000/svg"><defs
     id="defs1" /><g
     id="g12"
     transform="scale(0.26458333)"
     style="display:inline"><path
       d="m 0,185 9.3,-3.2 c 9.4,-3.1 28,-9.5 46.9,-6.5 18.8,3 37.8,15.4 56.6,13.7 18.9,-1.7 37.5,-17.3 56.2,-17.7 18.7,-0.3 37.3,14.7 56,18.2 18.7,3.5 37.3,-4.5 56.2,-9.5 18.8,-5 37.8,-7 56.6,-9 18.9,-2 37.5,-4 56.2,-1.2 18.7,2.9 37.3,10.5 56,8.7 18.7,-1.8 37.3,-13.2 56.2,-17 18.8,-3.8 37.8,-0.2 56.6,2.8 18.9,3 37.5,5.4 56.2,9.7 18.7,4.3 37.3,10.7 56,8 18.7,-2.7 37.3,-14.3 56.2,-18.3 18.8,-4 37.8,-0.4 56.6,-2 18.9,-1.7 37.5,-8.7 56.2,-6 18.7,2.6 37.3,15 46.7,21.1 L 900,183 V 0 h -9.3 C 881.3,0 862.7,0 844,0 825.3,0 806.7,0 787.8,0 769,0 750,0 731.2,0 712.3,0 693.7,0 675,0 656.3,0 637.7,0 619,0 600.3,0 581.7,0 562.8,0 544,0 525,0 506.2,0 487.3,0 468.7,0 450,0 431.3,0 412.7,0 394,0 375.3,0 356.7,0 337.8,0 319,0 300,0 281.2,0 262.3,0 243.7,0 225,0 206.3,0 187.7,0 169,0 150.3,0 131.7,0 112.8,0 94,0 75,0 56.2,0 37.3,0 18.7,0 9.3,0 H 0 Z"
       fill="#5d69f7"
       id="path1-02"
       transform="translate(3.4645669e-8,451)" /><path
       d="m 0,147 9.3,-1 c 9.4,-1 28,-3 46.9,-8.3 18.8,-5.4 37.8,-14 56.6,-10.7 18.9,3.3 37.5,18.7 56.2,22.5 18.7,3.8 37.3,-3.8 56,-9.5 18.7,-5.7 37.3,-9.3 56.2,-7.7 18.8,1.7 37.8,8.7 56.6,8.9 18.9,0.1 37.5,-6.5 56.2,-3.9 18.7,2.7 37.3,14.7 56,17.7 18.7,3 37.3,-3 56.2,-5.7 18.8,-2.6 37.8,-2 56.6,-4.6 18.9,-2.7 37.5,-8.7 56.2,-11.2 18.7,-2.5 37.3,-1.5 56,-4 18.7,-2.5 37.3,-8.5 56.2,-3.7 18.8,4.9 37.8,20.5 56.6,20.7 18.9,0.2 37.5,-15.2 56.2,-20.3 18.7,-5.2 37.3,-0.2 46.7,2.3 L 900,131 V 0 h -9.3 C 881.3,0 862.7,0 844,0 825.3,0 806.7,0 787.8,0 769,0 750,0 731.2,0 712.3,0 693.7,0 675,0 656.3,0 637.7,0 619,0 600.3,0 581.7,0 562.8,0 544,0 525,0 506.2,0 487.3,0 468.7,0 450,0 431.3,0 412.7,0 394,0 375.3,0 356.7,0 337.8,0 319,0 300,0 281.2,0 262.3,0 243.7,0 225,0 206.3,0 187.7,0 169,0 150.3,0 131.7,0 112.8,0 94,0 75,0 56.2,0 37.3,0 18.7,0 9.3,0 H 0 Z"
       fill="#4a7be5"
       id="path2-0"
       transform="translate(3.4645669e-8,451)" /><path
       d="m 0,93 9.3,4.2 c 9.4,4.1 28,12.5 46.9,12 C 75,108.7 94,99.3 112.8,99 c 18.9,-0.3 37.5,8.3 56.2,8.3 18.7,0 37.3,-8.6 56,-13.1 18.7,-4.5 37.3,-4.9 56.2,-1 18.8,3.8 37.8,11.8 56.6,10.8 18.9,-1 37.5,-11 56.2,-13.2 18.7,-2.1 37.3,3.5 56,10.2 18.7,6.7 37.3,14.3 56.2,16 18.8,1.7 37.8,-2.7 56.6,-9.3 18.9,-6.7 37.5,-15.7 56.2,-16 18.7,-0.4 37.3,8 56,14.5 18.7,6.5 37.3,11.1 56.2,11 18.8,-0.2 37.8,-5.2 56.6,-7 18.9,-1.9 37.5,-0.5 56.2,-0.2 18.7,0.3 37.3,-0.3 46.7,-0.7 L 900,109 V 0 h -9.3 C 881.3,0 862.7,0 844,0 825.3,0 806.7,0 787.8,0 769,0 750,0 731.2,0 712.3,0 693.7,0 675,0 656.3,0 637.7,0 619,0 600.3,0 581.7,0 562.8,0 544,0 525,0 506.2,0 487.3,0 468.7,0 450,0 431.3,0 412.7,0 394,0 375.3,0 356.7,0 337.8,0 319,0 300,0 281.2,0 262.3,0 243.7,0 225,0 206.3,0 187.7,0 169,0 150.3,0 131.7,0 112.8,0 94,0 75,0 56.2,0 37.3,0 18.7,0 9.3,0 H 0 Z"
       fill="#5686cc"
       id="path3-1"
       transform="translate(3.4645669e-8,451)" /><path
       d="M 0,77 9.3,73.2 C 18.7,69.3 37.3,61.7 56.2,63.8 75,66 94,78 112.8,83 c 18.9,5 37.5,3 56.2,-3 18.7,-6 37.3,-16 56,-18.5 18.7,-2.5 37.3,2.5 56.2,6.3 18.8,3.9 37.8,6.5 56.6,9.7 18.9,3.2 37.5,6.8 56.2,4.3 18.7,-2.5 37.3,-11.1 56,-10.6 18.7,0.5 37.3,10.1 56.2,11.8 18.8,1.7 37.8,-4.7 56.6,-11 18.9,-6.3 37.5,-12.7 56.2,-10 18.7,2.7 37.3,14.3 56,14.2 18.7,-0.2 37.3,-12.2 56.2,-18.5 18.8,-6.4 37.8,-7 56.6,-5.4 18.9,1.7 37.5,5.7 56.2,11.9 18.7,6.1 37.3,14.5 46.7,18.6 L 900,87 V 0 h -9.3 C 881.3,0 862.7,0 844,0 825.3,0 806.7,0 787.8,0 769,0 750,0 731.2,0 712.3,0 693.7,0 675,0 656.3,0 637.7,0 619,0 600.3,0 581.7,0 562.8,0 544,0 525,0 506.2,0 487.3,0 468.7,0 450,0 431.3,0 412.7,0 394,0 375.3,0 356.7,0 337.8,0 319,0 300,0 281.2,0 262.3,0 243.7,0 225,0 206.3,0 187.7,0 169,0 150.3,0 131.7,0 112.8,0 94,0 75,0 56.2,0 37.3,0 18.7,0 9.3,0 H 0 Z"
       fill="#718db0"
       id="path4-82"
       transform="translate(3.4645669e-8,451)" /><path
       id="path5-2"
       d="M -2e-6,-236 V -6.1732294e-7 51 L 9.3007794,49.300781 C 18.70077,47.700783 37.299236,44.299997 56.199217,41 74.999199,37.700003 94.000799,34.3 112.80078,34 131.70076,33.7 150.30002,36.299217 169,35.199219 187.69998,33.99922 206.30002,28.999217 225,27.699218 243.69998,26.29922 262.29924,28.7 281.19922,29 c 18.79998,0.299999 37.80158,-1.299998 56.60156,1 18.89998,2.299997 37.49924,8.699218 56.19922,8.199219 18.69998,-0.5 37.30002,-7.899999 56,-6 18.69998,1.799998 37.29924,12.800005 56.19922,18 18.79998,5.099995 37.80159,4.499997 56.60157,2 18.89998,-2.499998 37.49923,-6.899221 56.19922,-8.699219 18.69998,-1.799998 37.30002,-1.200784 56,-4.300781 18.69998,-3.199997 37.29923,-10.198437 56.19922,-9.398438 18.79998,0.899999 37.80158,9.499221 56.60156,11.699219 18.89998,2.199998 37.49924,-2.199219 56.19922,-2.699219 18.69998,-0.499999 37.29923,2.900002 46.69922,4.5 L 900.00001,45 V -6.1732294e-7 -195 l -13.69922,21 c -13.59999,20.99998 -41.00081,63.00001 -68.30078,73.5 -27.29997,10.499988 -54.70081,-10.50002 -81.80078,-31.5 -27.19998,-20.99998 -54.19847,-42 -81.39844,-39 -27.09998,2.99999 -54.50081,29.99923 -81.80078,39.69922 -27.29998,9.59999 -54.70003,2 -82.00001,5 -27.29997,2.99999 -54.70002,16.59999 -82,5.5 -27.29997,-11.19999 -54.70003,-47.19924 -82,-60.69922 -27.29997,-13.49999 -54.70081,-4.50001 -81.80078,-9 -27.19997,-4.5 -54.19847,-22.5 -81.39844,-21 -27.09997,1.5 -54.50081,22.49921 -81.800781,21.69922 -27.299973,-0.9 -54.700796,-23.49845 -68.300782,-34.89844 z"
       style="fill:#8f9193;fill-opacity:1"
       transform="translate(3.4645669e-8,451)" /><path
       d="m 0,42 13.7,1.5 c 13.6,1.5 41,4.5 68.3,2.2 27.3,-2.4 54.7,-10 81.8,-7.9 C 191,40 218,52 245.2,56.5 272.3,61 299.7,58 327,52 354.3,46 381.7,37 409,38.5 436.3,40 463.7,52 491,55 c 27.3,3 54.7,-3 82,-2.2 27.3,0.9 54.7,8.5 81.8,10 27.2,1.5 54.2,-3.1 81.4,-5.5 27.1,-2.3 54.5,-2.3 81.8,-0.8 27.3,1.5 54.7,4.5 68.3,6 L 900,64 V 0 H 886.3 C 872.7,0 845.3,0 818,0 790.7,0 763.3,0 736.2,0 709,0 682,0 654.8,0 627.7,0 600.3,0 573,0 545.7,0 518.3,0 491,0 463.7,0 436.3,0 409,0 381.7,0 354.3,0 327,0 299.7,0 272.3,0 245.2,0 218,0 191,0 163.8,0 136.7,0 109.3,0 82,0 54.7,0 27.3,0 13.7,0 H 0 Z"
       fill="#f2f4f6"
       id="path1-3" /><path
       d="m 0,123 h 13.7 c 13.6,0 41,0 68.3,-3 27.3,-3 54.7,-9 81.8,-6.8 27.2,2.1 54.2,12.5 81.4,18.5 27.1,6 54.5,7.6 81.8,14.5 27.3,6.8 54.7,18.8 82,23.3 27.3,4.5 54.7,1.5 82,3.7 27.3,2.1 54.7,9.5 82,4.1 27.3,-5.3 54.7,-23.3 81.8,-27.8 27.2,-4.5 54.2,4.5 81.4,16.5 27.1,12 54.5,27 81.8,27 27.3,0 54.7,-15 68.3,-22.5 L 900,163 V 62 L 886.3,60.5 C 872.7,59 845.3,56 818,54.5 790.7,53 763.3,53 736.2,55.3 709,57.7 682,62.3 654.8,60.8 627.7,59.3 600.3,51.7 573,50.8 545.7,50 518.3,56 491,53 463.7,50 436.3,38 409,36.5 381.7,35 354.3,44 327,50 299.7,56 272.3,59 245.2,54.5 218,50 191,38 163.8,35.8 136.7,33.7 109.3,41.3 82,43.7 54.7,46 27.3,43 13.7,41.5 L 0,40 Z"
       fill="#d8dadc"
       id="path2-1" /><path
       d="m 0,154 13.7,5.3 c 13.6,5.4 41,16 68.3,14.5 27.3,-1.5 54.7,-15.1 81.8,-11.5 27.2,3.7 54.2,24.7 81.4,32.2 27.1,7.5 54.5,1.5 81.8,10.5 27.3,9 54.7,33 82,38.3 27.3,5.4 54.7,-8 82,-9.5 27.3,-1.5 54.7,8.9 82,2 27.3,-6.8 54.7,-30.8 81.8,-36.8 27.2,-6 54.2,6 81.4,21 27.1,15 54.5,33 81.8,32.3 27.3,-0.6 54.7,-20 68.3,-29.6 L 900,213 v -52 l -13.7,7.5 C 872.7,176 845.3,191 818,191 790.7,191 763.3,176 736.2,164 709,152 682,143 654.8,147.5 627.7,152 600.3,170 573,175.3 c -27.3,5.4 -54.7,-2 -82,-4.1 C 463.7,169 436.3,172 409,167.5 381.7,163 354.3,151 327,144.2 299.7,137.3 272.3,135.7 245.2,129.7 218,123.7 191,113.3 163.8,111.2 136.7,109 109.3,115 82,118 c -27.3,3 -54.7,3 -68.3,3 H 0 Z"
       fill="#bfc1c3"
       id="path3-9" /><path
       d="m 0,217 13.7,11.3 c 13.6,11.4 41,34 68.3,34.9 27.3,0.8 54.7,-20.2 81.8,-21.7 27.2,-1.5 54.2,16.5 81.4,21 27.1,4.5 54.5,-4.5 81.8,9 27.3,13.5 54.7,49.5 82,60.7 27.3,11.1 54.7,-2.5 82,-5.5 27.3,-3 54.7,4.6 82,-5 27.3,-9.7 54.7,-36.7 81.8,-39.7 27.2,-3 54.2,18 81.4,39 27.1,21 54.5,42 81.8,31.5 C 845.3,342 872.7,300 886.3,279 L 900,258 v -47 l -13.7,9.7 c -13.6,9.6 -41,29 -68.3,29.6 C 790.7,251 763.3,233 736.2,218 709,203 682,191 654.8,197 c -27.1,6 -54.5,30 -81.8,36.8 -27.3,6.9 -54.7,-3.5 -82,-2 -27.3,1.5 -54.7,14.9 -82,9.5 C 381.7,236 354.3,212 327,203 299.7,194 272.3,200 245.2,192.5 218,185 191,164 163.8,160.3 136.7,156.7 109.3,170.3 82,171.8 54.7,173.3 27.3,162.7 13.7,157.3 L 0,152 Z"
       fill="#a7a9ab"
       id="path4-7" /></g></svg>
