<?xml version="1.0" encoding="UTF-8" standalone="no"?>
<svg
   width="238.1252mm"
   height="169.69295mm"
   viewBox="0 0 238.1252 169.69295"
   version="1.1"
   id="svg1"
   xml:space="preserve"
   xmlns="http://www.w3.org/2000/svg"
   xmlns:svg="http://www.w3.org/2000/svg"><defs
     id="defs1" /><g
     id="g2"
     transform="matrix(0.26458333,0,0,0.26458333,1.8926823e-4,0)"
     style="display:inline"><path
       d="M 0,77 9.3,73.2 C 18.7,69.3 37.3,61.7 56.2,63.8 75,66 94,78 112.8,83 c 18.9,5 37.5,3 56.2,-3 18.7,-6 37.3,-16 56,-18.5 18.7,-2.5 37.3,2.5 56.2,6.3 18.8,3.9 37.8,6.5 56.6,9.7 18.9,3.2 37.5,6.8 56.2,4.3 18.7,-2.5 37.3,-11.1 56,-10.6 18.7,0.5 37.3,10.1 56.2,11.8 18.8,1.7 37.8,-4.7 56.6,-11 18.9,-6.3 37.5,-12.7 56.2,-10 18.7,2.7 37.3,14.3 56,14.2 18.7,-0.2 37.3,-12.2 56.2,-18.5 18.8,-6.4 37.8,-7 56.6,-5.4 18.9,1.7 37.5,5.7 56.2,11.9 18.7,6.1 37.3,14.5 46.7,18.6 L 900,87 V 0 h -9.3 C 881.3,0 862.7,0 844,0 825.3,0 806.7,0 787.8,0 769,0 750,0 731.2,0 712.3,0 693.7,0 675,0 656.3,0 637.7,0 619,0 600.3,0 581.7,0 562.8,0 544,0 525,0 506.2,0 487.3,0 468.7,0 450,0 431.3,0 412.7,0 394,0 375.3,0 356.7,0 337.8,0 319,0 300,0 281.2,0 262.3,0 243.7,0 225,0 206.3,0 187.7,0 169,0 150.3,0 131.7,0 112.8,0 94,0 75,0 56.2,0 37.3,0 18.7,0 9.3,0 H 0 Z"
       fill="#403154"
       id="path4-8"
       style="display:inline"
       transform="translate(-4.0944883e-6,450.99999)" /><path
       d="m 0,185 9.3,-3.2 c 9.4,-3.1 28,-9.5 46.9,-6.5 18.8,3 37.8,15.4 56.6,13.7 18.9,-1.7 37.5,-17.3 56.2,-17.7 18.7,-0.3 37.3,14.7 56,18.2 18.7,3.5 37.3,-4.5 56.2,-9.5 18.8,-5 37.8,-7 56.6,-9 18.9,-2 37.5,-4 56.2,-1.2 18.7,2.9 37.3,10.5 56,8.7 18.7,-1.8 37.3,-13.2 56.2,-17 18.8,-3.8 37.8,-0.2 56.6,2.8 18.9,3 37.5,5.4 56.2,9.7 18.7,4.3 37.3,10.7 56,8 18.7,-2.7 37.3,-14.3 56.2,-18.3 18.8,-4 37.8,-0.4 56.6,-2 18.9,-1.7 37.5,-8.7 56.2,-6 18.7,2.6 37.3,15 46.7,21.1 L 900,183 V 0 h -9.3 C 881.3,0 862.7,0 844,0 825.3,0 806.7,0 787.8,0 769,0 750,0 731.2,0 712.3,0 693.7,0 675,0 656.3,0 637.7,0 619,0 600.3,0 581.7,0 562.8,0 544,0 525,0 506.2,0 487.3,0 468.7,0 450,0 431.3,0 412.7,0 394,0 375.3,0 356.7,0 337.8,0 319,0 300,0 281.2,0 262.3,0 243.7,0 225,0 206.3,0 187.7,0 169,0 150.3,0 131.7,0 112.8,0 94,0 75,0 56.2,0 37.3,0 18.7,0 9.3,0 H 0 Z"
       fill="#d75c75"
       id="path1-0"
       style="display:inline"
       transform="translate(-4.0944883e-6,450.99999)" /><path
       d="m 0,147 9.3,-1 c 9.4,-1 28,-3 46.9,-8.3 18.8,-5.4 37.8,-14 56.6,-10.7 18.9,3.3 37.5,18.7 56.2,22.5 18.7,3.8 37.3,-3.8 56,-9.5 18.7,-5.7 37.3,-9.3 56.2,-7.7 18.8,1.7 37.8,8.7 56.6,8.9 18.9,0.1 37.5,-6.5 56.2,-3.9 18.7,2.7 37.3,14.7 56,17.7 18.7,3 37.3,-3 56.2,-5.7 18.8,-2.6 37.8,-2 56.6,-4.6 18.9,-2.7 37.5,-8.7 56.2,-11.2 18.7,-2.5 37.3,-1.5 56,-4 18.7,-2.5 37.3,-8.5 56.2,-3.7 18.8,4.9 37.8,20.5 56.6,20.7 18.9,0.2 37.5,-15.2 56.2,-20.3 18.7,-5.2 37.3,-0.2 46.7,2.3 L 900,131 V 0 h -9.3 C 881.3,0 862.7,0 844,0 825.3,0 806.7,0 787.8,0 769,0 750,0 731.2,0 712.3,0 693.7,0 675,0 656.3,0 637.7,0 619,0 600.3,0 581.7,0 562.8,0 544,0 525,0 506.2,0 487.3,0 468.7,0 450,0 431.3,0 412.7,0 394,0 375.3,0 356.7,0 337.8,0 319,0 300,0 281.2,0 262.3,0 243.7,0 225,0 206.3,0 187.7,0 169,0 150.3,0 131.7,0 112.8,0 94,0 75,0 56.2,0 37.3,0 18.7,0 9.3,0 H 0 Z"
       fill="#a54b76"
       id="path2-8"
       style="display:inline"
       transform="translate(-4.0944883e-6,450.99999)" /><path
       d="m 0,93 9.3,4.2 c 9.4,4.1 28,12.5 46.9,12 C 75,108.7 94,99.3 112.8,99 c 18.9,-0.3 37.5,8.3 56.2,8.3 18.7,0 37.3,-8.6 56,-13.1 18.7,-4.5 37.3,-4.9 56.2,-1 18.8,3.8 37.8,11.8 56.6,10.8 18.9,-1 37.5,-11 56.2,-13.2 18.7,-2.1 37.3,3.5 56,10.2 18.7,6.7 37.3,14.3 56.2,16 18.8,1.7 37.8,-2.7 56.6,-9.3 18.9,-6.7 37.5,-15.7 56.2,-16 18.7,-0.4 37.3,8 56,14.5 18.7,6.5 37.3,11.1 56.2,11 18.8,-0.2 37.8,-5.2 56.6,-7 18.9,-1.9 37.5,-0.5 56.2,-0.2 18.7,0.3 37.3,-0.3 46.7,-0.7 L 900,109 V 0 h -9.3 C 881.3,0 862.7,0 844,0 825.3,0 806.7,0 787.8,0 769,0 750,0 731.2,0 712.3,0 693.7,0 675,0 656.3,0 637.7,0 619,0 600.3,0 581.7,0 562.8,0 544,0 525,0 506.2,0 487.3,0 468.7,0 450,0 431.3,0 412.7,0 394,0 375.3,0 356.7,0 337.8,0 319,0 300,0 281.2,0 262.3,0 243.7,0 225,0 206.3,0 187.7,0 169,0 150.3,0 131.7,0 112.8,0 94,0 75,0 56.2,0 37.3,0 18.7,0 9.3,0 H 0 Z"
       fill="#703f6b"
       id="path3-6"
       style="display:inline"
       transform="translate(-4.0944883e-6,450.99999)" /><path
       d="m 0,42 h 10 c 10,0 30,0 50,-1.5 20,-1.5 40,-4.5 60,-2.3 20,2.1 40,9.5 60,10.1 20,0.7 40,-5.3 60,-3.8 20,1.5 40,10.5 60,15 20,4.5 40,4.5 60,-1.5 20,-6 40,-18 60,-18 20,0 40,12 60,13.5 20,1.5 40,-7.5 60,-13.5 20,-6 40,-9 60,-9 20,0 40,3 60,3 20,0 40,-3 60,-0.7 20,2.4 40,10 60,14.5 20,4.5 40,5.9 60,2 C 860,46 880,37 890,32.5 L 900,28 V 0 H 890 C 880,0 860,0 840,0 820,0 800,0 780,0 760,0 740,0 720,0 700,0 680,0 660,0 640,0 620,0 600,0 580,0 560,0 540,0 520,0 500,0 480,0 460,0 440,0 420,0 400,0 380,0 360,0 340,0 320,0 300,0 280,0 260,0 240,0 220,0 200,0 180,0 160,0 140,0 120,0 100,0 80,0 60,0 40,0 20,0 10,0 H 0 Z"
       fill="#434a6e"
       id="path1" /><path
       d="m 0,96 10,3.7 c 10,3.6 30,11 50,14.6 20,3.7 40,3.7 60,0.7 20,-3 40,-9 60,-10.5 20,-1.5 40,1.5 60,6.8 20,5.4 40,13 60,16 20,3 40,1.4 60,-9.1 20,-10.5 40,-29.9 60,-28.4 20,1.5 40,23.9 60,29.9 20,6 40,-4.4 60,-12.5 20,-8.2 40,-14.2 60,-15.7 20,-1.5 40,1.5 60,0 20,-1.5 40,-7.5 60,-5.3 20,2.1 40,12.5 60,15.5 20,3 40,-1.4 60,-1.4 20,0 40,4.4 50,6.5 l 10,2.2 V 26 l -10,4.5 C 880,35 860,44 840,47.8 820,51.7 800,50.3 780,45.8 760,41.3 740,33.7 720,31.3 700,29 680,32 660,32 c -20,0 -40,-3 -60,-3 -20,0 -40,3 -60,9 -20,6 -40,15 -60,13.5 C 460,50 440,38 420,38 400,38 380,50 360,56 340,62 320,62 300,57.5 280,53 260,44 240,42.5 220,41 200,47 180,46.3 160,45.7 140,38.3 120,36.2 100,34 80,37 60,38.5 40,40 20,40 10,40 H 0 Z"
       fill="#363c5e"
       id="path2" /><path
       d="m 0,186 10,-3 c 10,-3 30,-9 50,-8.3 20,0.6 40,8 60,11.6 20,3.7 40,3.7 60,-3 20,-6.6 40,-20 60,-17 20,3 40,22.4 60,28.4 20,6 40,-1.4 60,-8 20,-6.7 40,-12.7 60,-10.5 20,2.1 40,12.5 60,15.5 20,3 40,-1.4 60,-7.4 20,-6 40,-13.6 60,-16.6 20,-3 40,-1.4 60,1.6 20,3 40,7.4 60,13.4 20,6 40,13.6 60,14.5 20,0.8 40,-5.2 60,-7.5 20,-2.4 40,-1 50,-0.4 l 10,0.7 v -83 l -10,-2.2 c -10,-2.1 -30,-6.5 -50,-6.5 -20,0 -40,4.4 -60,1.4 -20,-3 -40,-13.4 -60,-15.5 -20,-2.2 -40,3.8 -60,5.3 -20,1.5 -40,-1.5 -60,0 -20,1.5 -40,7.5 -60,15.7 -20,8.1 -40,18.5 -60,12.5 -20,-6 -40,-28.4 -60,-29.9 -20,-1.5 -40,17.9 -60,28.4 -20,10.5 -40,12.1 -60,9.1 -20,-3 -40,-10.6 -60,-16 -20,-5.3 -40,-8.3 -60,-6.8 -20,1.5 -40,7.5 -60,10.5 -20,3 -40,3 -60,-0.7 -20,-3.6 -40,-11 -50,-14.6 L 0,94 Z"
       fill="#292f4e"
       id="path3" /><path
       d="m 0,235 10,-5.2 c 10,-5.1 30,-15.5 50,-18.5 20,-3 40,1.4 60,5 20,3.7 40,6.7 60,3.7 20,-3 40,-12 60,-9.7 20,2.4 40,16 60,22.9 20,6.8 40,6.8 60,0.8 20,-6 40,-18 60,-18.8 20,-0.9 40,9.5 60,16.1 20,6.7 40,9.7 60,6 20,-3.6 40,-14 60,-20 20,-6 40,-7.6 60,-7.6 20,0 40,1.6 60,9.1 20,7.5 40,20.9 60,20.9 20,0 40,-13.4 60,-17.9 20,-4.5 40,-0.1 50,2 l 10,2.2 v -38 l -10,-0.7 c -10,-0.6 -30,-2 -50,0.4 -20,2.3 -40,8.3 -60,7.5 -20,-0.9 -40,-8.5 -60,-14.5 -20,-6 -40,-10.4 -60,-13.4 -20,-3 -40,-4.6 -60,-1.6 -20,3 -40,10.6 -60,16.6 -20,6 -40,10.4 -60,7.4 -20,-3 -40,-13.4 -60,-15.5 -20,-2.2 -40,3.8 -60,10.5 -20,6.6 -40,14 -60,8 -20,-6 -40,-25.4 -60,-28.4 -20,-3 -40,10.4 -60,17 -20,6.7 -40,6.7 -60,3 -20,-3.6 -40,-11 -60,-11.6 C 40,172 20,178 10,181 l -10,3 z"
       fill="#212742"
       id="path4" /><path
       d="m 0,321 10,-1.5 c 10,-1.5 30,-4.5 50,2.2 20,6.6 40,23 60,32.6 20,9.7 40,12.7 60,13.5 20,0.9 40,-0.5 60,-9.5 20,-9 40,-25.6 60,-25.6 20,0 40,16.6 60,15.1 20,-1.5 40,-21.1 60,-22.6 20,-1.5 40,15.1 60,18.1 20,3 40,-7.6 60,-10.6 20,-3 40,1.6 60,-2 20,-3.7 40,-15.7 60,-9 20,6.6 40,32 60,44.6 20,12.7 40,12.7 60,11.2 20,-1.5 40,-4.5 60,-7.5 20,-3 40,-6 50,-7.5 L 900,361 V 224 l -10,-2.2 c -10,-2.1 -30,-6.5 -50,-2 -20,4.5 -40,17.9 -60,17.9 -20,0 -40,-13.4 -60,-20.9 -20,-7.5 -40,-9.1 -60,-9.1 -20,0 -40,1.6 -60,7.6 -20,6 -40,16.4 -60,20 -20,3.7 -40,0.7 -60,-6 -20,-6.6 -40,-17 -60,-16.1 -20,0.8 -40,12.8 -60,18.8 -20,6 -40,6 -60,-0.8 -20,-6.9 -40,-20.5 -60,-22.9 -20,-2.3 -40,6.7 -60,9.7 -20,3 -40,0 -60,-3.7 -20,-3.6 -40,-8 -60,-5 -20,3 -40,13.4 -50,18.5 L 0,233 Z"
       fill="#1e243b"
       id="path5" /><path
       id="path6"
       d="m 31.249285,315.52465 c -8.749991,0.1 -16.250005,1.22461 -21.2500002,1.97461 l -10.0000001445,1.5 v 132 51 L 9.300066,500.30004 c 9.399991,-1.6 28.00041,-5.00078 46.900391,-8.30078 18.799981,-3.3 37.799629,-6.7 56.599613,-7 18.89998,-0.3 37.49924,2.30117 56.19922,1.20117 18.69998,-1.2 37.30002,-6.2 56,-7.5 18.69998,-1.4 37.30119,0.99883 56.20117,1.29883 18.79998,0.3 37.79963,-1.3 56.59961,1 18.89998,2.3 37.49924,8.70117 56.19922,8.20117 18.69998,-0.5 37.30002,-7.9 56,-6 18.69998,1.8 37.30119,12.80001 56.20117,18 18.79998,5.1 37.79963,4.5 56.59961,2 18.89998,-2.5 37.49924,-6.90117 56.19922,-8.70117 18.69998,-1.8 37.30002,-1.19883 56,-4.29883 18.69998,-3.19999 37.30119,-10.20039 56.20118,-9.40039 18.79998,0.9 37.79962,9.49922 56.59961,11.69922 18.89998,2.2 37.49923,-2.19922 56.19922,-2.69922 18.69998,-0.5 37.30118,2.9 46.70117,4.5 l 9.29883,1.69922 v -45 -92 l -10,1.5 -50,7.5 c -19.99998,3 -40.00003,6 -60.00001,7.5 -19.99998,1.5 -40.00002,1.50077 -60,-11.19922 -19.99998,-12.59999 -40.00002,-37.99962 -60,-44.59961 -19.99998,-6.69999 -40.00002,5.3 -60,9 -19.99998,3.6 -40.00002,-1 -60,2 -19.99998,3 -40.00002,13.59961 -60,10.59961 -19.99998,-3 -40.00002,-19.59961 -60,-18.09961 -19.99998,1.5 -40.00002,21.09961 -60,22.59961 -19.99998,1.5 -40.00002,-15.09961 -60,-15.09961 -19.99998,0 -40.00002,16.59962 -60,25.59961 -19.99998,8.99999 -40.00002,10.4 -60,9.5 -19.99998,-0.8 -40.00002,-3.80001 -60,-13.5 -19.999984,-9.59999 -40.000025,-25.99962 -60.000005,-32.59961 -9.99999,-3.35 -20.000009,-4.27578 -28.75,-4.17578 z"
       style="fill:#1b2034;fill-opacity:1" /></g></svg>
