<svg id="visual" viewBox="0 0 900 450" width="900" height="450" xmlns="http://www.w3.org/2000/svg" xmlns:xlink="http://www.w3.org/1999/xlink" version="1.1"><path d="M0 42L13.7 43.5C27.3 45 54.7 48 82 45.7C109.3 43.3 136.7 35.7 163.8 37.8C191 40 218 52 245.2 56.5C272.3 61 299.7 58 327 52C354.3 46 381.7 37 409 38.5C436.3 40 463.7 52 491 55C518.3 58 545.7 52 573 52.8C600.3 53.7 627.7 61.3 654.8 62.8C682 64.3 709 59.7 736.2 57.3C763.3 55 790.7 55 818 56.5C845.3 58 872.7 61 886.3 62.5L900 64L900 0L886.3 0C872.7 0 845.3 0 818 0C790.7 0 763.3 0 736.2 0C709 0 682 0 654.8 0C627.7 0 600.3 0 573 0C545.7 0 518.3 0 491 0C463.7 0 436.3 0 409 0C381.7 0 354.3 0 327 0C299.7 0 272.3 0 245.2 0C218 0 191 0 163.8 0C136.7 0 109.3 0 82 0C54.7 0 27.3 0 13.7 0L0 0Z" fill="#f2f4f6"></path><path d="M0 123L13.7 123C27.3 123 54.7 123 82 120C109.3 117 136.7 111 163.8 113.2C191 115.3 218 125.7 245.2 131.7C272.3 137.7 299.7 139.3 327 146.2C354.3 153 381.7 165 409 169.5C436.3 174 463.7 171 491 173.2C518.3 175.3 545.7 182.7 573 177.3C600.3 172 627.7 154 654.8 149.5C682 145 709 154 736.2 166C763.3 178 790.7 193 818 193C845.3 193 872.7 178 886.3 170.5L900 163L900 62L886.3 60.5C872.7 59 845.3 56 818 54.5C790.7 53 763.3 53 736.2 55.3C709 57.7 682 62.3 654.8 60.8C627.7 59.3 600.3 51.7 573 50.8C545.7 50 518.3 56 491 53C463.7 50 436.3 38 409 36.5C381.7 35 354.3 44 327 50C299.7 56 272.3 59 245.2 54.5C218 50 191 38 163.8 35.8C136.7 33.7 109.3 41.3 82 43.7C54.7 46 27.3 43 13.7 41.5L0 40Z" fill="#d8dadc"></path><path d="M0 154L13.7 159.3C27.3 164.7 54.7 175.3 82 173.8C109.3 172.3 136.7 158.7 163.8 162.3C191 166 218 187 245.2 194.5C272.3 202 299.7 196 327 205C354.3 214 381.7 238 409 243.3C436.3 248.7 463.7 235.3 491 233.8C518.3 232.3 545.7 242.7 573 235.8C600.3 229 627.7 205 654.8 199C682 193 709 205 736.2 220C763.3 235 790.7 253 818 252.3C845.3 251.7 872.7 232.3 886.3 222.7L900 213L900 161L886.3 168.5C872.7 176 845.3 191 818 191C790.7 191 763.3 176 736.2 164C709 152 682 143 654.8 147.5C627.7 152 600.3 170 573 175.3C545.7 180.7 518.3 173.3 491 171.2C463.7 169 436.3 172 409 167.5C381.7 163 354.3 151 327 144.2C299.7 137.3 272.3 135.7 245.2 129.7C218 123.7 191 113.3 163.8 111.2C136.7 109 109.3 115 82 118C54.7 121 27.3 121 13.7 121L0 121Z" fill="#bfc1c3"></path><path d="M0 217L13.7 228.3C27.3 239.7 54.7 262.3 82 263.2C109.3 264 136.7 243 163.8 241.5C191 240 218 258 245.2 262.5C272.3 267 299.7 258 327 271.5C354.3 285 381.7 321 409 332.2C436.3 343.3 463.7 329.7 491 326.7C518.3 323.7 545.7 331.3 573 321.7C600.3 312 627.7 285 654.8 282C682 279 709 300 736.2 321C763.3 342 790.7 363 818 352.5C845.3 342 872.7 300 886.3 279L900 258L900 211L886.3 220.7C872.7 230.3 845.3 249.7 818 250.3C790.7 251 763.3 233 736.2 218C709 203 682 191 654.8 197C627.7 203 600.3 227 573 233.8C545.7 240.7 518.3 230.3 491 231.8C463.7 233.3 436.3 246.7 409 241.3C381.7 236 354.3 212 327 203C299.7 194 272.3 200 245.2 192.5C218 185 191 164 163.8 160.3C136.7 156.7 109.3 170.3 82 171.8C54.7 173.3 27.3 162.7 13.7 157.3L0 152Z" fill="#a7a9ab"></path><path d="M0 451L13.7 451C27.3 451 54.7 451 82 451C109.3 451 136.7 451 163.8 451C191 451 218 451 245.2 451C272.3 451 299.7 451 327 451C354.3 451 381.7 451 409 451C436.3 451 463.7 451 491 451C518.3 451 545.7 451 573 451C600.3 451 627.7 451 654.8 451C682 451 709 451 736.2 451C763.3 451 790.7 451 818 451C845.3 451 872.7 451 886.3 451L900 451L900 256L886.3 277C872.7 298 845.3 340 818 350.5C790.7 361 763.3 340 736.2 319C709 298 682 277 654.8 280C627.7 283 600.3 310 573 319.7C545.7 329.3 518.3 321.7 491 324.7C463.7 327.7 436.3 341.3 409 330.2C381.7 319 354.3 283 327 269.5C299.7 256 272.3 265 245.2 260.5C218 256 191 238 163.8 239.5C136.7 241 109.3 262 82 261.2C54.7 260.3 27.3 237.7 13.7 226.3L0 215Z" fill="#8f9193"></path></svg>