<svg id="visual" viewBox="0 0 900 150" width="900" height="150" xmlns="http://www.w3.org/2000/svg" xmlns:xlink="http://www.w3.org/1999/xlink" version="1.1"><path d="M0 143L9.3 142.7C18.7 142.3 37.3 141.7 56.2 141.8C75 142 94 143 112.8 138.5C131.7 134 150.3 124 169 120C187.7 116 206.3 118 225 119.2C243.7 120.3 262.3 120.7 281.2 123.7C300 126.7 319 132.3 337.8 130.7C356.7 129 375.3 120 394 115.5C412.7 111 431.3 111 450 111C468.7 111 487.3 111 506.2 115.7C525 120.3 544 129.7 562.8 130.7C581.7 131.7 600.3 124.3 619 125.5C637.7 126.7 656.3 136.3 675 136.5C693.7 136.7 712.3 127.3 731.2 123.5C750 119.7 769 121.3 787.8 124.7C806.7 128 825.3 133 844 133.2C862.7 133.3 881.3 128.7 890.7 126.3L900 124L900 0L890.7 0C881.3 0 862.7 0 844 0C825.3 0 806.7 0 787.8 0C769 0 750 0 731.2 0C712.3 0 693.7 0 675 0C656.3 0 637.7 0 619 0C600.3 0 581.7 0 562.8 0C544 0 525 0 506.2 0C487.3 0 468.7 0 450 0C431.3 0 412.7 0 394 0C375.3 0 356.7 0 337.8 0C319 0 300 0 281.2 0C262.3 0 243.7 0 225 0C206.3 0 187.7 0 169 0C150.3 0 131.7 0 112.8 0C94 0 75 0 56.2 0C37.3 0 18.7 0 9.3 0L0 0Z" fill="#eebbc3"></path><path d="M0 108L9.3 109.5C18.7 111 37.3 114 56.2 111.2C75 108.3 94 99.7 112.8 94C131.7 88.3 150.3 85.7 169 89.7C187.7 93.7 206.3 104.3 225 109C243.7 113.7 262.3 112.3 281.2 113C300 113.7 319 116.3 337.8 117.5C356.7 118.7 375.3 118.3 394 114.2C412.7 110 431.3 102 450 100.5C468.7 99 487.3 104 506.2 102.8C525 101.7 544 94.3 562.8 91.8C581.7 89.3 600.3 91.7 619 93.2C637.7 94.7 656.3 95.3 675 96.3C693.7 97.3 712.3 98.7 731.2 97.5C750 96.3 769 92.7 787.8 95.8C806.7 99 825.3 109 844 111.7C862.7 114.3 881.3 109.7 890.7 107.3L900 105L900 0L890.7 0C881.3 0 862.7 0 844 0C825.3 0 806.7 0 787.8 0C769 0 750 0 731.2 0C712.3 0 693.7 0 675 0C656.3 0 637.7 0 619 0C600.3 0 581.7 0 562.8 0C544 0 525 0 506.2 0C487.3 0 468.7 0 450 0C431.3 0 412.7 0 394 0C375.3 0 356.7 0 337.8 0C319 0 300 0 281.2 0C262.3 0 243.7 0 225 0C206.3 0 187.7 0 169 0C150.3 0 131.7 0 112.8 0C94 0 75 0 56.2 0C37.3 0 18.7 0 9.3 0L0 0Z" fill="#b78fa1"></path><path d="M0 92L9.3 91.8C18.7 91.7 37.3 91.3 56.2 89.5C75 87.7 94 84.3 112.8 80.8C131.7 77.3 150.3 73.7 169 75.2C187.7 76.7 206.3 83.3 225 82.3C243.7 81.3 262.3 72.7 281.2 71.3C300 70 319 76 337.8 76.3C356.7 76.7 375.3 71.3 394 71.5C412.7 71.7 431.3 77.3 450 78C468.7 78.7 487.3 74.3 506.2 74.3C525 74.3 544 78.7 562.8 80.2C581.7 81.7 600.3 80.3 619 81.5C637.7 82.7 656.3 86.3 675 83.5C693.7 80.7 712.3 71.3 731.2 68.8C750 66.3 769 70.7 787.8 74.2C806.7 77.7 825.3 80.3 844 83.5C862.7 86.7 881.3 90.3 890.7 92.2L900 94L900 0L890.7 0C881.3 0 862.7 0 844 0C825.3 0 806.7 0 787.8 0C769 0 750 0 731.2 0C712.3 0 693.7 0 675 0C656.3 0 637.7 0 619 0C600.3 0 581.7 0 562.8 0C544 0 525 0 506.2 0C487.3 0 468.7 0 450 0C431.3 0 412.7 0 394 0C375.3 0 356.7 0 337.8 0C319 0 300 0 281.2 0C262.3 0 243.7 0 225 0C206.3 0 187.7 0 169 0C150.3 0 131.7 0 112.8 0C94 0 75 0 56.2 0C37.3 0 18.7 0 9.3 0L0 0Z" fill="#80677e"></path><path d="M0 59L9.3 56.5C18.7 54 37.3 49 56.2 48.2C75 47.3 94 50.7 112.8 50.7C131.7 50.7 150.3 47.3 169 46.8C187.7 46.3 206.3 48.7 225 51.5C243.7 54.3 262.3 57.7 281.2 58C300 58.3 319 55.7 337.8 54.2C356.7 52.7 375.3 52.3 394 50.8C412.7 49.3 431.3 46.7 450 47.8C468.7 49 487.3 54 506.2 56.5C525 59 544 59 562.8 59.3C581.7 59.7 600.3 60.3 619 60.7C637.7 61 656.3 61 675 57.8C693.7 54.7 712.3 48.3 731.2 47.3C750 46.3 769 50.7 787.8 53.7C806.7 56.7 825.3 58.3 844 58.7C862.7 59 881.3 58 890.7 57.5L900 57L900 0L890.7 0C881.3 0 862.7 0 844 0C825.3 0 806.7 0 787.8 0C769 0 750 0 731.2 0C712.3 0 693.7 0 675 0C656.3 0 637.7 0 619 0C600.3 0 581.7 0 562.8 0C544 0 525 0 506.2 0C487.3 0 468.7 0 450 0C431.3 0 412.7 0 394 0C375.3 0 356.7 0 337.8 0C319 0 300 0 281.2 0C262.3 0 243.7 0 225 0C206.3 0 187.7 0 169 0C150.3 0 131.7 0 112.8 0C94 0 75 0 56.2 0C37.3 0 18.7 0 9.3 0L0 0Z" fill="#4b4259"></path><path d="M0 34L9.3 34.8C18.7 35.7 37.3 37.3 56.2 37.7C75 38 94 37 112.8 36.3C131.7 35.7 150.3 35.3 169 34.3C187.7 33.3 206.3 31.7 225 28.7C243.7 25.7 262.3 21.3 281.2 20.7C300 20 319 23 337.8 25.3C356.7 27.7 375.3 29.3 394 30C412.7 30.7 431.3 30.3 450 30.5C468.7 30.7 487.3 31.3 506.2 31.5C525 31.7 544 31.3 562.8 30.7C581.7 30 600.3 29 619 30.3C637.7 31.7 656.3 35.3 675 37.3C693.7 39.3 712.3 39.7 731.2 38C750 36.3 769 32.7 787.8 30.2C806.7 27.7 825.3 26.3 844 24.7C862.7 23 881.3 21 890.7 20L900 19L900 0L890.7 0C881.3 0 862.7 0 844 0C825.3 0 806.7 0 787.8 0C769 0 750 0 731.2 0C712.3 0 693.7 0 675 0C656.3 0 637.7 0 619 0C600.3 0 581.7 0 562.8 0C544 0 525 0 506.2 0C487.3 0 468.7 0 450 0C431.3 0 412.7 0 394 0C375.3 0 356.7 0 337.8 0C319 0 300 0 281.2 0C262.3 0 243.7 0 225 0C206.3 0 187.7 0 169 0C150.3 0 131.7 0 112.8 0C94 0 75 0 56.2 0C37.3 0 18.7 0 9.3 0L0 0Z" fill="#1b2034"></path></svg>