<svg id="visual" viewBox="0 0 900 150" width="900" height="150" xmlns="http://www.w3.org/2000/svg" xmlns:xlink="http://www.w3.org/1999/xlink" version="1.1"><path d="M0 89L21.5 89C43 89 86 89 128.8 91.2C171.7 93.3 214.3 97.7 257.2 100C300 102.3 343 102.7 385.8 98C428.7 93.3 471.3 83.7 514.2 81.2C557 78.7 600 83.3 642.8 85.7C685.7 88 728.3 88 771.2 89.5C814 91 857 94 878.5 95.5L900 97L900 0L878.5 0C857 0 814 0 771.2 0C728.3 0 685.7 0 642.8 0C600 0 557 0 514.2 0C471.3 0 428.7 0 385.8 0C343 0 300 0 257.2 0C214.3 0 171.7 0 128.8 0C86 0 43 0 21.5 0L0 0Z" fill="#00ebc7"></path><path d="M0 85L21.5 85.2C43 85.3 86 85.7 128.8 84.2C171.7 82.7 214.3 79.3 257.2 74C300 68.7 343 61.3 385.8 61.7C428.7 62 471.3 70 514.2 70.7C557 71.3 600 64.7 642.8 61.3C685.7 58 728.3 58 771.2 63.5C814 69 857 80 878.5 85.5L900 91L900 0L878.5 0C857 0 814 0 771.2 0C728.3 0 685.7 0 642.8 0C600 0 557 0 514.2 0C471.3 0 428.7 0 385.8 0C343 0 300 0 257.2 0C214.3 0 171.7 0 128.8 0C86 0 43 0 21.5 0L0 0Z" fill="#2cd5d4"></path><path d="M0 63L21.5 62.5C43 62 86 61 128.8 57C171.7 53 214.3 46 257.2 42.7C300 39.3 343 39.7 385.8 44.7C428.7 49.7 471.3 59.3 514.2 63.3C557 67.3 600 65.7 642.8 65.5C685.7 65.3 728.3 66.7 771.2 63.5C814 60.3 857 52.7 878.5 48.8L900 45L900 0L878.5 0C857 0 814 0 771.2 0C728.3 0 685.7 0 642.8 0C600 0 557 0 514.2 0C471.3 0 428.7 0 385.8 0C343 0 300 0 257.2 0C214.3 0 171.7 0 128.8 0C86 0 43 0 21.5 0L0 0Z" fill="#61bdcd"></path><path d="M0 39L21.5 37.2C43 35.3 86 31.7 128.8 33C171.7 34.3 214.3 40.7 257.2 40.5C300 40.3 343 33.7 385.8 32.5C428.7 31.3 471.3 35.7 514.2 36C557 36.3 600 32.7 642.8 32.3C685.7 32 728.3 35 771.2 37.3C814 39.7 857 41.3 878.5 42.2L900 43L900 0L878.5 0C857 0 814 0 771.2 0C728.3 0 685.7 0 642.8 0C600 0 557 0 514.2 0C471.3 0 428.7 0 385.8 0C343 0 300 0 257.2 0C214.3 0 171.7 0 128.8 0C86 0 43 0 21.5 0L0 0Z" fill="#82a6b6"></path><path d="M0 30L21.5 29C43 28 86 26 128.8 24.5C171.7 23 214.3 22 257.2 21.5C300 21 343 21 385.8 19.5C428.7 18 471.3 15 514.2 13.8C557 12.7 600 13.3 642.8 13.5C685.7 13.7 728.3 13.3 771.2 14.5C814 15.7 857 18.3 878.5 19.7L900 21L900 0L878.5 0C857 0 814 0 771.2 0C728.3 0 685.7 0 642.8 0C600 0 557 0 514.2 0C471.3 0 428.7 0 385.8 0C343 0 300 0 257.2 0C214.3 0 171.7 0 128.8 0C86 0 43 0 21.5 0L0 0Z" fill="#8f9193"></path></svg>